<?xml version="1.0" standalone="no"?>
<!DOCTYPE svg PUBLIC "-//W3C//DTD SVG 20010904//EN"
 "http://www.w3.org/TR/2001/REC-SVG-20010904/DTD/svg10.dtd">
<svg version="1.0" xmlns="http://www.w3.org/2000/svg"
 width="564.000000pt" height="423.000000pt" viewBox="0 0 564.000000 423.000000"
 preserveAspectRatio="xMidYMid meet">

<g transform="translate(0.000000,423.000000) scale(0.100000,-0.100000)"
fill="#000000" stroke="none">
<path d="M5476 4047 c-10 -7 -31 -25 -47 -41 -20 -18 -36 -26 -49 -23 -12 3
-18 1 -14 -5 4 -6 0 -15 -7 -20 -10 -6 -7 -7 10 -2 14 3 29 11 35 15 44 37
100 89 96 88 -3 0 -13 -6 -24 -12z"/>
<path d="M4539 3979 l-24 -20 40 6 c48 8 54 13 35 25 -21 13 -25 13 -51 -11z"/>
<path d="M5243 3982 c-10 -10 -31 -24 -48 -30 -21 -8 -281 -13 -865 -16 -459
-3 -836 -5 -837 -5 0 -1 5 -22 13 -48 8 -25 14 -49 14 -52 0 -3 -47 -7 -104
-8 -88 -2 -119 -7 -212 -38 -111 -36 -259 -110 -310 -155 -59 -51 -158 -180
-138 -180 3 0 44 29 90 65 56 44 112 77 169 100 47 19 129 58 182 86 l97 51
136 -7 c122 -7 136 -10 149 -29 8 -11 40 -47 71 -78 l56 -58 -31 -30 -32 -31
-44 39 c-63 56 -159 102 -212 102 -62 0 -252 -56 -317 -93 -81 -46 -159 -129
-207 -222 -23 -44 -67 -109 -97 -144 -53 -61 -69 -95 -26 -56 25 23 25 18 0
-40 -38 -88 -16 -86 29 3 34 66 76 108 185 186 66 46 86 56 120 56 23 0 50 -7
60 -15 27 -20 96 -19 211 5 98 20 157 25 168 14 3 -4 -12 -34 -33 -68 l-39
-61 -218 0 -218 0 -105 -71 c-93 -62 -114 -82 -183 -173 -43 -57 -75 -106 -73
-109 3 -2 25 13 50 35 25 22 73 55 108 73 35 18 109 62 166 97 93 58 111 66
190 79 107 17 242 19 242 3 0 -19 -70 -79 -91 -79 -73 0 -371 -143 -466 -224
-70 -59 -129 -134 -169 -216 -38 -77 -42 -116 -5 -57 27 45 81 91 273 235 134
100 299 195 376 217 l23 7 -19 -39 c-30 -58 -66 -86 -186 -144 -83 -41 -126
-70 -182 -122 -110 -102 -229 -295 -283 -455 -31 -90 -26 -105 13 -40 19 31
57 85 84 120 27 35 72 101 100 148 112 187 133 208 310 319 93 58 93 51 5 -52
-127 -149 -224 -274 -247 -322 -13 -27 -43 -93 -66 -145 -23 -52 -64 -140 -91
-195 -42 -87 -76 -191 -66 -201 4 -5 179 261 205 313 12 23 33 72 47 109 28
74 98 195 182 316 58 83 78 104 64 66 -4 -13 -12 -54 -16 -93 -11 -109 -44
-290 -71 -395 -17 -64 -27 -135 -31 -220 l-6 -125 38 70 c21 39 48 92 62 118
35 70 61 265 64 477 2 96 5 181 8 189 2 8 17 -48 32 -125 22 -105 29 -168 29
-259 0 -187 26 -365 52 -365 8 0 9 77 5 278 -5 257 -8 288 -36 426 -34 164
-36 193 -20 245 33 103 33 103 41 6 5 -63 19 -129 48 -220 49 -155 73 -276 95
-485 10 -85 19 -157 21 -159 14 -14 17 34 18 241 0 256 -4 285 -73 446 -32 77
-71 248 -71 311 1 28 38 124 40 100 4 -58 40 -210 74 -309 24 -70 56 -180 70
-246 43 -192 147 -477 167 -457 4 4 1 35 -7 68 -52 220 -99 432 -109 501 -10
65 -28 116 -85 240 -97 212 -98 219 -47 297 l42 61 13 -79 c7 -44 31 -124 53
-180 49 -124 90 -285 123 -481 29 -172 39 -204 96 -313 46 -88 66 -118 74
-111 2 3 -11 73 -30 155 -38 167 -55 241 -79 362 -18 91 -124 386 -160 443
-31 50 -45 95 -52 172 -5 63 -4 71 22 108 43 62 51 65 53 21 2 -21 14 -78 27
-127 14 -49 41 -150 60 -224 19 -74 42 -152 50 -174 9 -21 22 -70 31 -110 20
-97 45 -162 114 -292 69 -133 126 -219 134 -206 3 5 -1 29 -10 53 -8 24 -30
116 -48 204 -20 96 -46 191 -66 235 -134 310 -223 534 -250 631 l-19 69 26 30
c30 36 39 36 76 7 25 -21 30 -40 67 -227 46 -230 54 -260 118 -415 56 -135 88
-195 164 -306 56 -83 58 -88 58 -151 0 -213 221 -723 385 -892 21 -21 34 -41
28 -45 -16 -10 -33 -47 -33 -71 0 -18 -4 -20 -22 -14 -13 3 -34 14 -48 24 -38
27 -67 33 -67 15 0 -8 4 -15 9 -15 4 0 8 -16 8 -35 l0 -35 -68 6 -69 7 -13
-49 c-7 -27 -16 -52 -19 -56 -3 -3 -35 16 -71 43 -36 27 -76 54 -90 61 -25 13
-26 16 -26 113 l0 100 -34 0 c-19 0 -47 -4 -63 -8 -18 -6 -32 -5 -41 2 -7 6
-29 11 -47 11 -19 -1 -58 1 -86 4 -38 4 -53 2 -53 -7 0 -9 -2 -9 -8 0 -5 8
-12 9 -22 2 -13 -8 -13 -10 0 -19 13 -8 12 -10 -2 -10 -24 0 -23 -5 9 -48 l27
-37 -30 30 c-17 17 -34 42 -38 58 -10 43 -26 36 -123 -50 -31 -28 -34 -33 -19
-39 13 -5 31 7 67 42 26 26 52 45 56 40 4 -4 -6 -18 -22 -32 -17 -15 -29 -30
-27 -36 1 -5 -2 -7 -8 -3 -5 3 -10 2 -10 -2 0 -8 108 -33 157 -37 11 0 19 -4
17 -8 -2 -3 8 -15 23 -26 25 -18 25 -20 10 -42 l-15 -22 -16 28 c-8 16 -15 24
-16 18 0 -5 7 -19 15 -30 8 -10 15 -27 15 -36 0 -12 8 -18 22 -18 12 0 46 -7
77 -16 162 -47 251 -76 255 -83 7 -10 -38 -8 -45 2 -3 5 -29 2 -58 -7 -33 -10
-49 -11 -45 -4 5 8 1 9 -10 5 -10 -4 -20 -7 -22 -7 -3 0 -2 -5 1 -10 10 -17
-4 -11 -25 10 -25 25 -40 26 -40 1 0 -10 -6 -24 -14 -30 -11 -10 -17 -8 -25 6
-10 16 -11 15 -9 -6 5 -38 -20 -36 -39 3 -17 37 -33 47 -33 21 0 -8 -7 -15
-16 -15 -11 0 -14 -6 -9 -20 5 -15 2 -20 -10 -20 -13 0 -16 -6 -13 -25 3 -14
1 -28 -4 -31 -14 -9 2 -24 19 -17 11 4 14 3 9 -5 -10 -17 -24 -15 -53 8 -14
11 -20 20 -14 20 7 0 10 4 6 9 -3 5 -1 12 5 16 19 12 10 22 -19 21 -24 -1 -27
-4 -20 -18 12 -23 11 -37 -1 -18 -9 13 -11 13 -20 0 -8 -13 -10 -13 -10 1 0
12 -7 15 -27 11 -25 -5 -26 -3 -15 10 16 20 7 25 -38 22 -19 -1 -38 3 -42 10
-5 7 -8 6 -8 -4 0 -9 -10 -16 -28 -16 -26 -2 -26 -1 -4 9 12 5 22 16 22 24 0
10 5 11 19 3 26 -14 88 -13 97 2 5 8 -3 9 -29 5 -21 -3 -37 -2 -37 4 0 5 -8 9
-17 9 -14 0 -15 2 -4 9 9 6 10 11 2 15 -6 4 -15 5 -20 2 -5 -4 -11 -1 -13 5
-5 15 -53 -7 -107 -50 -35 -28 -41 -30 -32 -12 7 12 20 25 29 28 9 4 29 17 44
29 l28 22 -45 0 c-26 0 -49 -6 -56 -14 -6 -8 -20 -14 -31 -14 -28 0 -89 -28
-103 -47 -7 -10 -10 -24 -8 -33 4 -10 1 -9 -9 4 -15 19 -75 25 -310 29 -51 1
-78 6 -78 13 0 22 -30 24 -50 4 -17 -17 -29 -19 -85 -15 -43 4 -65 2 -65 -6 0
-6 16 -10 38 -8 20 1 48 -3 62 -8 14 -5 109 -9 213 -8 157 2 184 0 170 -11
-10 -7 -26 -14 -35 -14 -11 0 -18 -8 -18 -20 0 -18 6 -20 78 -19 51 1 67 4 47
8 -27 6 -28 7 -10 16 35 15 106 15 129 0 20 -14 19 -15 -12 -15 -48 0 -31 -16
20 -19 24 -1 96 -10 162 -20 l119 -17 -44 -13 c-24 -7 -73 -26 -108 -42 -35
-16 -58 -23 -52 -16 5 7 33 24 61 37 27 13 48 25 46 27 -7 8 -159 -48 -188
-68 -15 -11 -28 -16 -28 -11 0 5 26 24 58 41 51 29 54 32 23 27 -19 -4 -48
-13 -64 -21 -37 -18 -37 -18 -37 0 0 8 -5 15 -11 15 -5 0 -7 -4 -4 -10 8 -13
5 -13 -45 5 -64 22 -71 18 -18 -12 27 -14 46 -28 44 -31 -3 -2 -11 0 -18 4
-20 13 -141 54 -158 54 -8 0 5 -10 29 -22 25 -12 40 -23 33 -26 -6 -2 -24 4
-41 13 -17 8 -31 12 -31 8 0 -5 -4 -3 -8 4 -4 6 -21 14 -37 18 -29 6 -29 6 8
-18 44 -28 61 -45 30 -28 -12 6 -33 12 -47 13 -13 1 -22 6 -20 10 3 4 -1 8
-10 8 -8 0 -22 3 -32 7 -13 5 -16 3 -11 -10 9 -23 -33 -35 -45 -13 -5 9 -17
16 -26 16 -15 0 -15 -2 -2 -10 9 -6 10 -10 3 -10 -6 0 -18 -3 -27 -6 -12 -4
-16 0 -16 16 0 18 -2 19 -15 8 -43 -39 -45 -40 -45 -18 0 23 -10 26 -28 8 -7
-7 -12 -8 -12 -2 0 5 -4 2 -10 -6 -8 -12 -10 -12 -15 2 -6 14 -11 15 -31 6
-13 -6 -24 -16 -25 -22 0 -6 -5 0 -11 14 -6 15 -12 20 -15 13 -3 -7 -11 -13
-19 -13 -8 0 -14 -4 -14 -10 0 -20 -19 -9 -22 13 l-3 22 -27 -26 -26 -27 -6
24 c-6 21 -9 22 -26 11 -11 -6 -23 -21 -27 -32 -6 -17 -8 -14 -13 13 l-5 33
-23 -21 c-13 -12 -25 -20 -26 -19 -2 2 -7 12 -13 22 -9 17 -11 16 -35 -8 -25
-25 -26 -25 -31 -4 l-6 21 -21 -20 c-12 -11 -29 -18 -37 -15 -8 3 -24 -4 -37
-16 -12 -12 -25 -18 -29 -15 -4 4 -19 -5 -33 -19 -15 -15 -33 -27 -40 -27 -8
0 -14 -6 -14 -13 0 -8 -13 -26 -30 -40 -27 -25 -30 -25 -30 -8 0 11 -4 23 -10
26 -5 3 -7 0 -5 -8 3 -7 -3 -24 -15 -37 -11 -13 -20 -27 -20 -32 0 -5 -4 -6
-10 -3 -5 3 -12 -6 -16 -20 -3 -14 -16 -33 -28 -43 -11 -10 -30 -29 -41 -42
l-20 -25 30 25 c16 14 48 45 70 69 31 34 44 41 50 31 5 -7 4 -11 -1 -8 -5 3
-15 0 -22 -8 -7 -8 -9 -14 -5 -14 4 0 -3 -7 -15 -16 -12 -8 -22 -22 -22 -30 0
-8 -5 -14 -10 -14 -6 0 -22 -12 -36 -28 -14 -15 -29 -27 -33 -27 -15 0 -229
-225 -214 -225 5 -1 -5 -8 -20 -16 -34 -19 -67 -46 -67 -56 0 -4 -25 -30 -55
-59 -30 -28 -52 -55 -50 -59 3 -4 44 -14 92 -20 67 -10 184 -11 488 -5 489 10
576 9 587 -7 6 -10 8 -10 8 0 0 6 9 12 20 12 13 0 18 -5 14 -15 -5 -11 -2 -13
10 -9 9 3 13 10 10 15 -3 5 3 9 13 10 36 2 68 -3 71 -12 2 -5 16 -9 32 -9 16
0 40 -4 54 -10 16 -6 27 -6 31 0 4 6 15 10 26 10 11 0 17 5 14 10 -4 7 123 10
373 10 l380 0 12 -30 c11 -27 17 -30 54 -29 35 1 37 2 16 9 -21 7 -17 8 20 9
32 0 41 -2 30 -9 -10 -7 24 -10 105 -11 66 0 147 -2 180 -4 71 -4 63 1 -20 14
-53 9 -47 9 45 6 58 -2 130 -8 160 -14 30 -5 118 -9 195 -8 118 0 128 2 65 7
-68 6 -63 7 49 7 68 1 144 -4 170 -11 48 -12 135 -10 126 4 -2 4 36 10 86 13
109 7 144 24 129 62 -7 17 -6 25 1 25 13 0 -71 59 -117 83 -17 9 -33 14 -36
12 -2 -2 -4 5 -4 15 0 14 7 20 23 20 13 0 23 5 23 11 0 8 -12 10 -34 6 -22 -3
-39 -1 -45 7 -8 10 56 12 312 10 183 -1 313 2 302 7 -35 15 -568 88 -659 90
-42 1 -54 7 -78 33 -35 38 -35 54 0 61 15 4 46 11 70 17 46 12 100 14 236 10
114 -3 107 -12 -10 -13 -81 -1 -86 -2 -59 -13 l30 -13 -32 -6 c-18 -4 -48 -10
-65 -13 -18 -4 -36 -12 -40 -19 -5 -7 -18 -11 -30 -9 -21 4 -22 4 -3 -5 11 -5
124 -10 250 -10 263 -1 439 -20 490 -51 l33 -20 1 77 1 78 -118 64 c-181 99
-204 112 -199 118 3 2 39 -14 81 -36 42 -23 110 -59 151 -81 41 -22 77 -40 80
-40 3 0 5 28 5 63 0 47 -5 68 -18 83 -26 27 -34 62 -14 60 27 -2 23 20 -5 34
-50 25 -68 20 -69 -18 0 -27 3 -33 17 -29 12 3 16 0 12 -9 -3 -8 0 -21 7 -29
10 -12 9 -15 -9 -15 -11 0 -22 5 -22 10 -1 6 -2 16 -3 23 -1 7 -13 11 -31 10
-18 -1 -22 0 -10 4 31 8 37 19 20 33 -10 8 -15 9 -15 1 0 -6 -12 -11 -27 -11
-22 0 -32 8 -45 35 -12 25 -14 35 -5 38 7 2 8 8 3 13 -5 5 -11 4 -13 -3 -3 -7
-12 -13 -21 -14 -14 0 -13 -2 2 -8 12 -5 15 -10 9 -14 -6 -4 -17 1 -24 9 -12
14 -11 19 9 32 12 8 22 19 22 24 0 7 -5 7 -13 0 -10 -8 -16 -4 -26 19 -10 24
-17 28 -34 23 -18 -6 -20 -5 -10 8 10 11 10 17 1 26 -9 9 -7 12 7 13 12 0 15
3 7 6 -25 10 -62 54 -62 73 0 11 -7 20 -15 20 -8 0 -15 7 -15 16 0 9 5 12 13
8 10 -6 10 -4 0 7 -16 16 -18 165 -3 174 6 3 10 33 10 65 0 32 -4 62 -10 65
-12 7 -14 885 -2 885 4 0 6 217 4 482 -2 266 1 524 6 573 8 78 9 62 8 -120 0
-115 1 -371 3 -568 3 -310 5 -358 18 -353 8 3 38 9 67 12 48 6 54 4 58 -14 4
-13 12 -19 24 -17 11 2 22 4 27 4 4 1 7 8 7 16 0 14 -12 19 -32 16 -5 0 -8 5
-8 13 0 12 -14 14 -72 10 -51 -3 -67 -1 -53 5 11 5 37 10 57 10 43 1 68 9 68
23 0 6 -27 8 -72 4 -81 -7 -67 7 20 19 31 4 52 12 52 19 0 10 -12 11 -47 5
-65 -11 -95 -11 -89 0 3 5 35 12 71 16 48 5 65 11 65 22 0 11 -7 13 -27 9 -79
-15 -115 -18 -109 -8 3 5 28 12 56 16 60 8 80 15 80 28 0 9 -80 4 -124 -9 -11
-3 -16 -1 -12 5 3 5 23 13 43 16 81 14 93 18 93 31 0 10 -9 11 -37 5 -82 -17
-103 -19 -103 -11 0 4 32 14 70 21 44 8 70 18 70 26 0 14 -11 13 -102 -6 -21
-4 -38 -4 -38 0 0 4 30 14 67 21 37 8 69 21 71 28 4 11 -3 13 -29 7 -19 -3
-52 -9 -74 -11 l-40 -5 35 11 c19 5 52 15 73 20 20 5 37 16 37 23 0 11 -11 11
-61 -1 -34 -8 -66 -12 -73 -10 -6 2 22 12 62 21 48 12 72 23 72 33 0 9 -6 12
-17 9 -43 -13 -116 -26 -120 -22 -5 4 24 13 100 32 27 6 44 21 34 30 -2 2 -33
-2 -68 -10 -81 -19 -89 -12 -13 10 72 20 96 32 89 44 -3 4 -24 2 -47 -5 -74
-21 -104 -27 -93 -17 6 5 38 17 73 27 36 11 62 24 62 32 0 16 7 17 -70 -7 -75
-23 -73 -23 -66 -12 3 5 32 17 66 27 70 21 109 53 50 40 -19 -4 -53 -13 -75
-21 -21 -7 -41 -11 -44 -9 -2 3 2 7 10 9 96 34 129 50 129 61 0 11 -16 8 -72
-11 -40 -13 -68 -20 -62 -14 6 6 37 19 70 31 62 22 82 34 71 45 -3 4 -39 -6
-79 -20 -40 -15 -68 -22 -62 -16 7 7 40 22 75 35 35 12 65 28 67 34 5 16 -16
14 -77 -9 -29 -12 -58 -19 -64 -17 -6 2 19 14 56 27 38 13 73 30 79 37 16 20
-11 17 -77 -8 -31 -12 -59 -19 -61 -16 -3 3 4 8 16 12 12 4 47 18 77 32 80 35
56 51 -26 18 -35 -15 -65 -24 -68 -22 -2 3 27 17 64 33 66 27 92 46 74 52 -5
2 -37 -8 -72 -22 -82 -34 -87 -27 -7 9 72 32 90 44 83 56 -3 4 -35 -5 -72 -22
-36 -16 -68 -27 -70 -25 -3 3 29 20 71 40 42 19 76 39 76 45 0 16 -16 13 -61
-9 -51 -27 -89 -41 -89 -34 0 3 34 21 75 39 66 30 95 55 65 55 -8 0 -110 -44
-132 -57 -5 -2 -8 -2 -8 1 0 3 31 21 69 41 67 33 89 51 78 61 -3 3 -37 -11
-77 -31 -40 -20 -69 -32 -66 -26 4 6 36 24 71 41 64 30 83 46 71 57 -5 5 -51
-14 -128 -54 -5 -2 -8 -2 -8 1 0 3 32 22 70 41 39 19 70 40 70 45 0 16 -17 12
-80 -20 -82 -42 -89 -37 -10 6 36 20 72 42 81 50 9 8 19 11 22 7 4 -3 7 48 7
115 0 67 -3 122 -7 122 -5 0 -7 -48 -5 -107 l2 -108 -71 -35 c-97 -48 -107
-49 -26 -2 74 42 94 58 84 68 -3 4 -36 -10 -73 -30 -36 -20 -68 -35 -71 -33
-2 3 30 23 72 46 41 23 75 46 75 51 0 17 -20 11 -82 -25 -33 -20 -63 -34 -65
-31 -3 2 29 23 71 46 70 38 87 56 70 73 -4 4 -19 -2 -33 -12 -14 -10 -43 -24
-63 -32 -21 -7 -38 -17 -38 -21 0 -4 -6 -8 -12 -8 -8 0 -14 15 -15 36 -1 30 5
43 35 72 23 23 32 37 23 40 -7 2 -18 -1 -24 -7 -16 -16 -35 -13 -40 7 -2 9 -4
-43 -3 -116 0 -72 -2 -132 -6 -132 -5 0 -8 71 -7 158 l0 157 46 30 c56 37 68
59 26 49 -15 -4 -30 -10 -33 -13 -3 -3 -12 -11 -20 -18 -13 -10 -16 -9 -17 8
-1 12 9 25 27 34 26 13 50 42 50 59 0 11 -36 6 -47 -5 -9 -9 -14 -5 -18 14 -4
14 -4 31 0 36 10 18 -13 12 -32 -7z m7 -56 c0 -7 -6 -18 -12 -24 -10 -8 -13
-4 -14 14 -1 15 4 24 12 24 8 0 14 -6 14 -14z m-51 -41 c0 -5 -4 -3 -9 5 -5 8
-9 22 -9 30 0 16 17 -16 18 -35z m48 -57 c-3 -8 -6 -5 -6 6 -1 11 2 17 5 13 3
-3 4 -12 1 -19z m-1675 -309 c20 -5 40 -14 43 -19 7 -11 -61 -110 -75 -110 -4
0 -57 11 -118 25 -122 28 -301 34 -363 14 -19 -7 -63 -32 -99 -56 l-65 -44 58
54 c61 58 149 110 207 122 19 5 87 14 150 21 117 12 195 10 262 -7z m368 -103
c30 -23 60 -45 65 -51 10 -10 65 -143 80 -194 4 -14 39 -79 77 -145 l70 -121
-5 -115 c-9 -184 -11 -184 -96 -42 -102 171 -175 346 -222 532 -22 85 -42 163
-45 174 -7 22 -2 20 76 -38z m-1130 -220 c0 -2 -8 -10 -17 -17 -16 -13 -17
-12 -4 4 13 16 21 21 21 13z m1783 -1236 c17 -7 27 -14 21 -16 -6 -3 -21 -1
-35 4 -27 10 -86 -3 -110 -24 -18 -16 -45 -100 -41 -124 2 -8 11 -21 20 -27
14 -12 14 -13 -2 -13 -10 0 -23 14 -32 37 -30 70 17 150 93 162 l38 6 5 245 5
245 3 -242 2 -241 33 -12z m-32 -61 c6 -20 14 -10 10 14 0 4 4 7 9 7 15 0 12
-62 -4 -83 -11 -14 -15 -15 -25 -4 -6 8 -8 17 -4 20 3 4 1 7 -5 7 -7 0 -12 15
-12 36 0 41 20 43 31 3z m46 -61 c-2 -13 -4 -5 -4 17 -1 22 1 32 4 23 2 -10 2
-28 0 -40z m-42 -78 c-3 -5 -12 -7 -20 -3 -21 7 -19 13 6 13 11 0 18 -4 14
-10z m-692 -195 c10 -14 13 -25 7 -25 -5 0 -10 5 -10 10 0 6 -6 10 -14 10 -8
0 -16 7 -20 15 -9 24 17 17 37 -10z m47 5 c0 -5 -2 -10 -4 -10 -3 0 -8 5 -11
10 -3 6 -1 10 4 10 6 0 11 -4 11 -10z m-100 -20 c0 -5 -2 -10 -4 -10 -3 0 -8
5 -11 10 -3 6 -1 10 4 10 6 0 11 -4 11 -10z m60 -40 c0 -5 -4 -10 -9 -10 -6 0
-13 5 -16 10 -3 6 1 10 9 10 9 0 16 -4 16 -10z m115 -8 c-3 -3 -11 0 -18 7 -9
10 -8 11 6 5 10 -3 15 -9 12 -12z m-35 -2 c0 -5 -4 -10 -10 -10 -5 0 -10 5
-10 10 0 6 5 10 10 10 6 0 10 -4 10 -10z m-260 -10 c0 -5 -7 -10 -16 -10 -8 0
-12 5 -9 10 3 6 10 10 16 10 5 0 9 -4 9 -10z m27 -12 c-3 -8 -6 -5 -6 6 -1 11
2 17 5 13 3 -3 4 -12 1 -19z m203 -12 c0 -3 -4 -8 -10 -11 -5 -3 -10 -1 -10 4
0 6 5 11 10 11 6 0 10 -2 10 -4z m670 -20 c0 -3 -4 -8 -10 -11 -5 -3 -10 -1
-10 4 0 6 5 11 10 11 6 0 10 -2 10 -4z m-735 -16 c-3 -5 -11 -10 -16 -10 -6 0
-7 5 -4 10 3 6 11 10 16 10 6 0 7 -4 4 -10z m75 0 c-20 -13 -33 -13 -25 0 3 6
14 10 23 10 15 0 15 -2 2 -10z m70 -4 c0 -2 -7 -7 -16 -10 -8 -3 -12 -2 -9 4
6 10 25 14 25 6z m792 -87 c-1 -6 2 -8 8 -4 5 3 19 1 31 -6 l22 -11 -24 -14
c-30 -17 -19 -18 16 -2 24 11 42 4 206 -77 98 -49 179 -93 179 -96 0 -4 -9 -9
-20 -12 -11 -3 -18 -1 -14 4 7 12 -23 11 -47 -1 -24 -13 -25 -2 -1 17 13 11
10 11 -14 -1 -17 -8 -35 -12 -39 -8 -4 4 -5 -2 -2 -13 3 -11 9 -33 13 -50 4
-16 10 -32 14 -35 25 -20 50 -73 50 -109 0 -23 5 -41 10 -41 6 0 10 -8 10 -17
0 -14 -2 -15 -9 -5 -4 8 -6 -21 -3 -65 3 -63 2 -76 -8 -66 -7 7 -14 28 -14 47
-2 46 -16 59 -17 15 -4 -93 3 -83 -74 -89 -45 -3 -63 -8 -50 -12 19 -7 -5 -5
-107 11 -45 7 -70 -3 -30 -11 9 -3 -2 -6 -25 -9 -40 -4 -41 -4 -26 14 16 17
16 17 -3 11 -10 -4 -23 -12 -27 -18 -6 -7 -7 -5 -4 5 3 9 2 20 -3 25 -5 5 -13
43 -19 84 -9 69 -7 89 23 236 l33 160 -236 -1 c-297 0 -388 13 -300 44 43 15
46 14 23 -5 -18 -14 -17 -15 14 -11 17 2 32 0 32 -5 0 -4 12 -7 28 -7 23 2 24
2 5 6 -14 3 -23 11 -22 21 0 11 3 12 6 5 2 -7 12 -13 21 -13 14 0 14 2 3 9
-11 7 -9 10 8 16 33 10 82 9 89 -2 4 -6 34 -14 67 -18 56 -7 58 -6 45 11 -14
16 -13 16 8 3 31 -19 28 -29 -10 -30 -18 -1 -44 -5 -58 -10 -18 -6 -7 -7 35
-4 107 8 169 15 174 22 4 3 -12 3 -35 1 -44 -6 -48 0 -38 50 4 20 9 23 30 18
17 -5 23 -3 19 4 -3 5 -18 10 -33 10 -23 1 -25 3 -12 13 16 13 24 51 9 41 -5
-3 -9 0 -9 5 0 6 5 11 11 11 6 0 3 7 -5 16 -27 26 -18 24 42 -12 31 -20 56
-40 54 -45z m-142 32 c0 -5 -7 -12 -16 -15 -14 -5 -15 -4 -4 9 14 17 20 19 20
6z m-235 -30 c-3 -5 2 -11 10 -13 13 -2 12 -5 -4 -15 -16 -10 -22 -9 -35 12
-16 24 -16 25 9 25 15 0 24 -4 20 -9z m185 -36 c-6 -30 -8 -33 -9 -13 -1 25 8
62 14 56 2 -2 -1 -21 -5 -43z m-1114 -128 c-22 -22 -106 -72 -106 -63 0 3 23
23 51 45 56 45 94 57 55 18z m469 -7 c3 -5 1 -10 -4 -10 -6 0 -11 5 -11 10 0
6 2 10 4 10 3 0 8 -4 11 -10z m803 -5 c-2 -3 -17 -6 -31 -7 -31 -3 -32 -6 -12
-32 15 -19 15 -19 15 5 0 19 2 21 10 9 8 -12 10 -12 10 -1 0 8 2 12 5 9 6 -6
-11 -128 -22 -158 -7 -21 -43 97 -43 142 0 34 2 37 33 40 34 3 44 1 35 -7z
m-422 -141 c49 -36 91 -71 93 -76 4 -12 -40 0 -54 15 -7 7 -6 7 4 2 10 -5 12
-4 7 4 -4 6 -11 9 -16 6 -5 -3 -23 1 -40 10 -16 8 -30 12 -30 7 0 -4 14 -13
30 -19 17 -6 30 -16 30 -22 0 -6 -7 -8 -15 -5 -11 5 -14 1 -9 -12 3 -11 -1 -7
-10 7 -13 23 -20 25 -76 24 -34 -1 -63 2 -65 5 -5 8 -100 4 -114 -4 -5 -4 -14
2 -20 11 -7 12 -13 14 -18 8 -10 -14 -53 -17 -53 -4 0 6 -9 7 -20 4 -25 -8
-51 11 -43 31 3 8 14 14 24 14 11 0 27 4 37 9 27 15 187 34 226 28 41 -7 47
-1 14 13 -23 9 -22 9 3 9 18 1 57 -21 115 -65z m-726 -16 c-14 -6 -38 -17 -54
-25 -16 -7 -34 -13 -40 -13 -6 0 -29 -12 -51 -26 l-40 -25 30 25 c34 30 86 56
130 67 44 10 53 9 25 -3z m290 -15 c0 -13 -3 -13 -15 -3 -8 7 -12 16 -9 21 8
13 24 1 24 -18z m-220 -2 c0 -6 -4 -13 -10 -16 -5 -3 -10 -1 -10 4 0 16 -19
13 -38 -5 -12 -12 -17 -13 -20 -4 -3 7 2 16 9 21 19 12 69 11 69 0z m-735 -31
c3 -5 1 -10 -4 -10 -6 0 -11 5 -11 10 0 6 2 10 4 10 3 0 8 -4 11 -10z m634 -3
c-2 -1 -13 -9 -24 -17 -19 -14 -19 -14 -6 3 7 9 18 17 24 17 6 0 8 -1 6 -3z
m-69 -51 c0 -2 -8 -10 -17 -17 -16 -13 -17 -12 -4 4 13 16 21 21 21 13z m-110
-10 c0 -2 -8 -10 -17 -17 -16 -13 -17 -12 -4 4 13 16 21 21 21 13z m1797 -98
c-3 -8 -6 -5 -6 6 -1 11 2 17 5 13 3 -3 4 -12 1 -19z m103 -34 c0 -2 -9 0 -20
6 -11 6 -20 13 -20 16 0 2 9 0 20 -6 11 -6 20 -13 20 -16z m-177 -81 c-13 -2
-35 -2 -50 0 -16 2 -5 4 22 4 28 0 40 -2 28 -4z m-273 -232 c0 -5 28 -12 63
-16 80 -9 109 -24 47 -25 -25 0 -56 -3 -70 -5 -22 -5 -22 -4 -5 4 18 8 16 10
-10 10 -17 1 -38 10 -48 21 -16 19 -16 20 3 20 11 0 20 -4 20 -9z m317 -37
c-3 -3 -12 -4 -19 -1 -8 3 -5 6 6 6 11 1 17 -2 13 -5z m-3487 -29 c-7 -8 -17
-15 -23 -15 -6 0 -2 7 9 15 25 19 30 19 14 0z m-50 -49 c0 -2 -8 -10 -17 -17
-16 -13 -17 -12 -4 4 13 16 21 21 21 13z m3313 -63 c-7 -2 -21 -2 -30 0 -10 3
-4 5 12 5 17 0 24 -2 18 -5z m-3333 -13 c0 -5 -10 -10 -22 -9 -22 0 -22 1 -3
9 11 5 21 9 23 9 1 1 2 -3 2 -9z m1208 -97 c-10 -2 -28 -2 -40 0 -13 2 -5 4
17 4 22 1 32 -1 23 -4z"/>
<path d="M4760 1310 c0 -5 5 -10 10 -10 6 0 10 5 10 10 0 6 -4 10 -10 10 -5 0
-10 -4 -10 -10z"/>
<path d="M4750 1265 c-10 -12 -10 -15 3 -15 8 0 17 7 21 15 3 8 2 15 -3 15 -5
0 -14 -7 -21 -15z"/>
<path d="M5095 800 c-3 -5 -1 -10 4 -10 6 0 11 5 11 10 0 6 -2 10 -4 10 -3 0
-8 -4 -11 -10z"/>
<path d="M5122 730 c0 -14 2 -19 5 -12 2 6 2 18 0 25 -3 6 -5 1 -5 -13z"/>
<path d="M4711 1104 c0 -11 3 -14 6 -6 3 7 2 16 -1 19 -3 4 -6 -2 -5 -13z"/>
<path d="M4088 1043 c7 -3 16 -2 19 1 4 3 -2 6 -13 5 -11 0 -14 -3 -6 -6z"/>
<path d="M1770 3980 c19 -13 30 -13 30 0 0 6 -10 10 -22 10 -19 0 -20 -2 -8
-10z"/>
<path d="M3056 3930 c-7 -3 -12 -13 -10 -24 1 -10 -15 -38 -39 -65 -23 -25
-50 -56 -60 -68 -30 -35 -11 -46 31 -18 20 13 69 37 107 54 39 16 100 46 138
65 37 19 90 38 117 42 28 4 48 9 45 12 -6 7 -311 9 -329 2z"/>
<path d="M5430 3932 c0 -7 -6 -12 -14 -12 -8 0 -17 -4 -20 -9 -4 -5 3 -7 14
-4 22 6 35 21 26 30 -3 4 -6 1 -6 -5z"/>
<path d="M1 3755 c0 -105 4 -173 10 -170 5 4 9 0 9 -7 0 -10 3 -9 9 1 8 12 12
13 25 1 22 -18 29 -7 30 43 1 50 24 58 43 14 7 -16 16 -26 21 -23 4 2 14 -5
22 -17 12 -21 12 -21 -5 -7 -11 8 -6 -2 10 -22 29 -37 51 -42 40 -8 -3 10 -2
21 2 23 5 3 9 -2 9 -11 1 -9 4 -26 8 -37 6 -14 5 -16 -2 -7 -7 11 -10 11 -15
-1 -6 -17 16 -41 27 -29 4 4 12 -2 18 -13 11 -19 11 -19 18 0 5 13 -2 41 -16
74 -33 74 -29 77 8 6 18 -33 31 -67 30 -75 -3 -13 -2 -13 7 0 7 10 0 32 -26
80 -20 36 -43 70 -51 76 -8 6 -12 15 -9 21 3 5 -3 24 -14 41 -21 37 -25 72 -7
72 7 0 29 -17 50 -37 33 -32 40 -35 49 -23 8 12 9 10 4 -7 -4 -14 -2 -23 4
-23 6 0 11 -7 11 -16 0 -8 4 -12 10 -9 5 3 10 0 10 -7 0 -21 123 -178 181
-233 30 -27 43 -38 30 -22 -24 26 -17 39 7 15 9 -9 9 -5 0 15 -11 22 -15 24
-23 13 -9 -12 -15 -10 -33 9 -16 16 -19 26 -11 31 6 4 16 -1 21 -10 12 -22 32
-21 24 2 -5 14 -3 13 11 -3 20 -23 53 -28 89 -15 15 6 24 6 24 0 0 -6 5 -10
11 -10 6 0 8 9 3 22 -6 21 -5 21 10 9 9 -8 15 -20 12 -28 -3 -7 -1 -13 4 -13
6 0 10 6 10 13 0 9 3 8 9 -2 5 -7 6 -23 4 -35 -4 -16 -3 -18 6 -6 8 12 14 10
36 -14 14 -16 28 -27 30 -24 2 2 -23 34 -56 71 -54 60 -63 66 -82 56 -20 -9
-21 -9 -4 4 17 14 14 18 -39 66 -55 49 -82 61 -53 24 11 -15 10 -15 -9 1 -12
11 -20 21 -17 24 7 7 -26 42 -39 42 -6 -1 0 -10 13 -20 13 -11 18 -20 13 -20
-6 0 -14 5 -17 10 -4 6 -10 8 -15 5 -5 -3 -7 3 -5 14 5 27 -110 128 -128 112
-10 -7 -13 -4 -14 12 -2 17 0 19 7 7 6 -9 10 -10 10 -3 0 10 -33 41 -76 71
-11 7 -13 10 -6 7 19 -10 14 3 -15 41 l-28 34 -117 0 -117 0 0 -175z m254 100
c1 -14 -2 -22 -5 -19 -3 3 -5 16 -5 29 -1 14 2 22 5 19 3 -3 5 -16 5 -29z
m-73 -68 c-6 -7 -9 -24 -6 -38 4 -24 4 -24 -5 -1 -11 24 -5 52 11 52 7 0 7 -5
0 -13z m-130 -45 c-7 -5 -10 -16 -6 -28 6 -15 4 -17 -6 -7 -15 14 -7 43 12 43
11 0 11 -2 0 -8z m19 -15 c-10 -9 -11 -8 -5 6 3 10 9 15 12 12 3 -3 0 -11 -7
-18z m214 13 c3 -6 -1 -7 -9 -4 -18 7 -21 14 -7 14 6 0 13 -4 16 -10z m-102
-49 c-4 -17 -8 -19 -14 -9 -12 18 -11 31 1 23 6 -3 10 -1 10 6 0 7 2 10 5 8 2
-3 2 -15 -2 -28z m231 3 c3 -8 2 -12 -4 -9 -6 3 -10 10 -10 16 0 14 7 11 14
-7z m-376 -12 c2 -7 -2 -10 -12 -6 -9 3 -16 11 -16 16 0 13 23 5 28 -10z m42
1 c0 -15 -2 -16 -10 -3 -8 12 -10 12 -10 1 0 -8 -3 -12 -6 -8 -8 7 4 27 17 27
5 0 9 -8 9 -17z m134 2 c3 -8 1 -15 -4 -15 -6 0 -10 7 -10 15 0 8 2 15 4 15 2
0 6 -7 10 -15z m176 -72 c21 -43 21 -43 17 -43 -3 0 -14 16 -26 35 -11 19 -17
35 -12 35 4 0 14 -12 21 -27z m83 -43 c-3 -12 -8 -19 -11 -16 -5 6 5 36 12 36
2 0 2 -9 -1 -20z m-211 -37 c15 -31 15 -31 -8 -29 -13 2 -27 6 -32 10 -4 4 0
6 8 4 11 -2 14 5 13 26 -2 33 -2 32 19 -11z m183 11 c9 -15 12 -23 6 -20 -11
7 -35 46 -28 46 3 0 12 -12 22 -26z m38 -50 c-4 -12 -8 -13 -14 -3 -9 15 -2
32 11 24 5 -3 6 -13 3 -21z"/>
<path d="M334 3905 c21 -14 43 -22 49 -19 7 4 9 4 5 -1 -4 -4 12 -20 35 -36
23 -15 81 -59 128 -98 48 -38 90 -67 95 -63 4 4 4 2 1 -4 -8 -14 17 -37 28
-26 5 4 5 2 2 -4 -7 -13 16 -37 26 -29 4 3 5 2 2 -1 -8 -12 16 -45 27 -38 6 4
8 3 5 -3 -7 -12 26 -46 36 -38 4 3 5 2 2 -1 -4 -6 52 -80 92 -122 7 -7 13 -17
13 -21 0 -12 40 -56 51 -56 5 0 14 -7 19 -15 5 -8 10 -10 10 -4 0 5 -5 15 -12
22 -9 9 -9 12 0 12 7 0 15 -7 18 -15 4 -8 10 -12 15 -9 5 3 7 10 4 15 -4 5 -2
9 3 9 8 0 22 -22 22 -35 0 -4 -53 -19 -62 -17 -4 1 -5 -5 -2 -12 5 -13 11 -13
46 0 50 17 60 18 56 2 -2 -7 1 -14 6 -15 5 -1 13 -7 17 -15 7 -10 9 -10 9 0 0
7 -31 45 -69 85 -38 40 -94 102 -126 140 -34 40 -61 65 -68 61 -7 -4 -9 -4 -5
1 9 9 -172 201 -185 197 -5 -1 -6 2 -2 7 5 10 -17 52 -72 134 l-26 37 -115 0
-115 0 37 -25z m141 -55 c-3 -5 -12 -10 -18 -10 -7 0 -6 4 3 10 19 12 23 12
15 0z m435 -420 c0 -5 -2 -10 -4 -10 -3 0 -8 5 -11 10 -3 6 -1 10 4 10 6 0 11
-4 11 -10z m-10 -25 c7 -9 8 -15 2 -15 -5 0 -12 7 -16 15 -3 8 -4 15 -2 15 2
0 9 -7 16 -15z m80 -35 c0 -5 -7 -7 -15 -4 -8 4 -22 1 -30 -6 -15 -12 -22 0
-8 13 10 11 53 8 53 -3z"/>
<path d="M680 3915 c7 -9 19 -14 27 -11 8 4 11 1 8 -5 -4 -5 13 -31 37 -57 25
-26 53 -60 62 -75 10 -15 23 -24 29 -20 6 3 7 1 3 -6 -9 -14 21 -65 89 -151
28 -36 69 -93 90 -128 21 -34 49 -74 62 -88 12 -14 23 -29 23 -34 0 -5 6 -13
14 -17 7 -4 25 -27 40 -50 14 -24 29 -43 32 -43 4 0 -1 12 -11 26 -19 29 -14
40 12 29 10 -5 20 -9 23 -9 3 -1 11 -5 18 -9 7 -5 18 -2 27 6 16 17 10 28 -12
20 -8 -3 -19 0 -24 8 -7 11 -9 10 -10 -6 l0 -20 -8 20 c-11 26 9 39 25 17 7
-9 15 -14 19 -10 16 15 -12 56 -94 137 -47 47 -124 130 -170 183 -47 53 -89
94 -94 91 -6 -3 -7 -1 -3 6 10 15 -13 43 -27 34 -6 -3 -7 -1 -3 5 4 6 -9 35
-27 64 -19 29 -41 65 -51 81 -14 24 -23 27 -67 27 -45 0 -50 -2 -39 -15z m455
-565 c3 -5 1 -10 -4 -10 -6 0 -11 5 -11 10 0 6 2 10 4 10 3 0 8 -4 11 -10z
m55 -40 c0 -5 -6 -10 -14 -10 -8 0 -18 5 -21 10 -3 6 3 10 14 10 12 0 21 -4
21 -10z"/>
<path d="M880 3925 c0 -16 58 -94 65 -88 4 5 5 2 1 -5 -9 -15 92 -175 105
-166 5 3 6 -1 4 -8 -3 -8 4 -24 15 -36 11 -12 18 -22 14 -22 -3 0 24 -32 61
-71 65 -70 155 -196 155 -219 0 -6 5 -8 10 -5 6 3 10 -2 10 -12 1 -22 25 44
34 91 4 19 2 46 -4 60 -14 39 -201 228 -217 221 -8 -2 -11 0 -8 5 4 6 -12 30
-34 53 -23 23 -57 73 -77 112 -20 38 -41 76 -46 83 -10 11 -88 18 -88 7z"/>
<path d="M1018 3868 c29 -67 156 -213 175 -201 5 3 7 2 4 -4 -3 -5 14 -30 39
-54 l46 -44 -39 56 c-21 32 -71 102 -111 158 -40 55 -77 112 -84 126 -7 16
-19 25 -34 25 l-22 0 26 -62z"/>
<path d="M1060 3921 c0 -7 93 -135 110 -151 35 -33 125 -166 167 -246 27 -53
42 -67 44 -41 0 6 2 20 4 30 6 33 -17 92 -72 182 -65 106 -82 127 -96 118 -5
-3 -7 -1 -3 5 3 5 -15 33 -40 61 -38 42 -52 51 -80 51 -19 0 -34 -4 -34 -9z"/>
<path d="M1160 3925 c0 -2 12 -17 26 -32 15 -15 47 -55 72 -88 24 -33 49 -59
54 -57 5 1 7 -2 3 -8 -6 -10 55 -104 63 -96 7 7 -43 111 -79 163 -53 78 -91
118 -116 120 -13 1 -23 0 -23 -2z"/>
<path d="M1286 3868 c46 -61 104 -171 104 -195 0 -6 5 -15 11 -19 9 -5 10 11
4 60 -9 88 -18 117 -52 171 -26 41 -31 44 -70 45 l-43 0 46 -62z"/>
<path d="M1372 3891 c12 -22 24 -39 25 -37 9 8 -21 76 -33 76 -12 0 -10 -8 8
-39z"/>
<path d="M1461 3893 c-13 -45 -9 -51 12 -20 9 13 23 32 32 41 15 15 15 16 -9
16 -20 0 -27 -7 -35 -37z"/>
<path d="M1529 3913 c-13 -16 -12 -17 4 -4 9 7 17 15 17 17 0 8 -8 3 -21 -13z"/>
<path d="M1526 3861 c-70 -73 -89 -107 -100 -180 l-7 -43 41 32 c55 44 220
234 220 253 0 4 -20 7 -43 7 -41 0 -48 -5 -111 -69z"/>
<path d="M1685 3890 c-14 -21 -69 -85 -122 -141 -98 -103 -103 -112 -28 -55
59 45 224 209 219 217 -2 4 4 10 13 12 10 3 1 5 -19 6 -34 1 -41 -3 -63 -39z"/>
<path d="M1778 3898 c-12 -18 -22 -42 -21 -53 1 -15 1 -16 -3 -3 -4 14 -25 -2
-92 -70 -48 -48 -116 -107 -152 -131 -71 -47 -100 -82 -100 -123 0 -26 1 -26
38 -16 56 15 234 103 270 133 27 23 32 34 32 71 0 24 4 44 9 44 4 0 7 -15 5
-32 l-3 -33 27 34 c15 18 50 60 77 93 28 33 61 73 74 89 l24 29 -81 0 c-79 0
-81 0 -104 -32z m-8 -128 c0 -5 -4 -10 -10 -10 -5 0 -10 5 -10 10 0 6 5 10 10
10 6 0 10 -4 10 -10z"/>
<path d="M2006 3873 c-30 -96 -158 -278 -214 -306 -15 -7 -26 -19 -24 -25 1
-7 -2 -12 -8 -12 -5 0 -10 4 -10 9 0 5 -32 -2 -71 -15 -39 -13 -76 -24 -81
-24 -6 0 -45 -16 -88 -35 -43 -19 -87 -35 -98 -35 -11 0 -23 -8 -26 -17 -13
-47 -28 -144 -22 -150 3 -3 6 2 6 13 0 15 2 16 9 5 7 -11 19 -8 67 14 33 15
82 43 110 61 75 50 117 64 189 64 63 0 66 1 103 39 54 57 143 205 159 264 7
28 13 67 13 87 0 19 5 42 10 50 7 10 10 -8 10 -60 1 -73 1 -74 16 -47 39 73
18 -17 -37 -151 -5 -13 -9 -35 -9 -50 1 -22 2 -24 10 -10 19 31 67 193 79 263
24 140 27 125 -27 125 l-48 0 -18 -57z m-240 -398 c-1 -25 -4 -45 -8 -45 -5 0
-8 20 -8 45 0 25 4 45 8 45 5 0 8 -20 8 -45z"/>
<path d="M316 3865 c3 -8 10 -12 15 -9 5 3 9 0 9 -6 0 -17 37 -53 48 -46 6 3
21 -4 33 -15 l24 -21 -27 16 c-34 20 -36 9 -4 -21 26 -25 42 -30 30 -10 -6 8
-3 8 9 -1 9 -8 20 -11 25 -8 5 3 9 -1 9 -9 0 -11 -5 -12 -21 -4 -15 7 -12 2 8
-16 18 -17 36 -25 48 -22 14 4 16 2 9 -7 -7 -8 4 -21 41 -46 44 -30 228 -209
299 -290 l21 -25 -17 30 c-23 39 -78 108 -135 168 -25 27 -46 53 -48 58 -2 5
-8 9 -13 9 -6 0 -7 -5 -3 -12 4 -7 3 -8 -5 -4 -6 4 -9 11 -6 16 6 10 -83 96
-96 93 -5 -2 -8 1 -6 6 3 13 -149 132 -167 130 -5 0 -13 6 -18 15 -5 9 -22 23
-38 31 -26 14 -29 14 -24 0z m245 -202 c13 -16 12 -17 -3 -4 -10 7 -18 15 -18
17 0 8 8 3 21 -13z m150 -120 l24 -26 -27 19 c-15 10 -28 22 -28 27 0 12 5 8
31 -20z"/>
<path d="M5605 3754 c-11 -9 -44 -28 -73 -41 l-54 -25 4 -344 c3 -189 7 -346
9 -348 9 -9 149 39 149 52 0 16 -4 15 -74 -8 -68 -23 -66 -23 -66 -12 0 4 32
18 70 31 44 14 70 28 70 37 0 18 4 18 -74 -11 -36 -14 -66 -21 -66 -16 0 8 43
27 128 56 6 2 12 11 12 19 0 12 -12 11 -66 -10 -37 -14 -69 -22 -72 -20 -5 6
74 42 114 52 13 3 24 13 24 21 0 17 -10 16 -87 -16 -29 -11 -53 -17 -53 -12 0
5 32 21 70 36 41 16 70 33 70 41 0 18 4 18 -69 -12 -35 -14 -66 -23 -69 -20
-2 3 6 10 19 15 82 32 119 52 119 65 0 17 -3 16 -92 -23 -27 -11 -48 -16 -48
-12 0 5 32 22 70 37 41 16 70 33 70 41 0 17 -24 11 -83 -19 -21 -10 -44 -17
-50 -15 -11 4 0 10 98 52 19 8 35 22 35 30 0 20 -1 20 -71 -16 -34 -17 -63
-28 -65 -26 -7 7 18 22 78 48 38 16 58 30 58 41 0 15 -9 13 -65 -14 -37 -17
-68 -28 -70 -26 -3 2 27 20 65 38 39 19 70 40 70 47 0 18 -1 17 -72 -17 -34
-16 -63 -28 -66 -26 -4 5 37 28 101 58 20 9 37 24 37 32 0 13 -4 13 -37 0 -20
-9 -46 -22 -59 -31 -13 -8 -28 -13 -34 -11 -6 2 20 19 59 38 49 23 71 39 71
52 0 16 -9 13 -67 -17 -37 -19 -68 -33 -71 -31 -2 3 28 22 67 43 39 21 71 44
71 51 0 17 -7 16 -68 -19 -29 -16 -58 -29 -63 -27 -6 2 22 20 61 41 38 21 70
45 70 53 0 12 -16 7 -65 -19 -36 -19 -65 -32 -65 -28 0 4 29 23 65 42 36 18
65 40 65 47 0 18 -8 15 -77 -22 -35 -19 -63 -31 -63 -27 0 3 32 23 70 44 50
27 70 44 70 58 0 23 -8 24 -35 3z"/>
<path d="M5491 3724 c0 -11 3 -14 6 -6 3 7 2 16 -1 19 -3 4 -6 -2 -5 -13z"/>
<path d="M2016 3705 c-9 -26 -7 -32 5 -12 6 10 9 21 6 23 -2 3 -7 -2 -11 -11z"/>
<path d="M259 3685 c17 -34 31 -51 31 -39 0 7 -9 22 -21 35 -16 19 -18 20 -10
4z"/>
<path d="M5315 3660 c3 -5 8 -10 11 -10 2 0 4 5 4 10 0 6 -5 10 -11 10 -5 0
-7 -4 -4 -10z"/>
<path d="M296 3631 c-9 -14 15 -62 27 -54 6 3 7 1 3 -6 -5 -7 8 -33 30 -61 41
-54 47 -59 37 -34 -4 12 -2 15 8 12 8 -3 14 -16 14 -29 0 -18 6 -24 22 -25 15
-1 20 3 15 14 -4 11 -7 12 -10 4 -6 -19 -24 -14 -18 6 6 17 -76 137 -93 137
-5 0 -13 4 -18 9 -5 5 -3 6 5 2 17 -10 15 9 -2 23 -9 8 -16 8 -20 2z m68 -87
c9 -24 7 -27 -9 -10 -17 17 -19 26 -6 26 5 0 12 -7 15 -16z m30 -45 c-3 -5
-10 -7 -15 -3 -5 3 -7 10 -3 15 3 5 10 7 15 3 5 -3 7 -10 3 -15z"/>
<path d="M5320 3620 c0 -5 7 -7 15 -4 8 4 15 8 15 10 0 2 -7 4 -15 4 -8 0 -15
-4 -15 -10z"/>
<path d="M95 3597 c-1 -12 -4 -35 -8 -50 -5 -18 -4 -26 2 -23 5 3 11 2 13 -4
1 -5 4 12 5 40 1 27 -1 51 -5 54 -4 2 -7 -6 -7 -17z"/>
<path d="M1980 3513 c-15 -54 -39 -107 -46 -100 -2 2 4 25 15 51 11 25 19 46
17 46 -6 0 -56 -79 -58 -92 -2 -7 3 -12 11 -10 8 2 11 -3 8 -13 -12 -29 1 -15
32 35 27 44 53 130 39 130 -3 0 -11 -21 -18 -47z"/>
<path d="M5461 3474 c0 -11 3 -14 6 -6 3 7 2 16 -1 19 -3 4 -6 -2 -5 -13z"/>
<path d="M640 3439 c0 -5 9 -9 20 -9 11 0 20 2 20 4 0 2 -9 6 -20 9 -11 3 -20
1 -20 -4z"/>
<path d="M5463 3395 c0 -27 2 -38 4 -22 2 15 2 37 0 50 -2 12 -4 0 -4 -28z"/>
<path d="M445 3400 c10 -11 20 -20 23 -20 3 0 -3 9 -13 20 -10 11 -20 20 -23
20 -3 0 3 -9 13 -20z"/>
<path d="M486 3396 c3 -8 13 -17 22 -21 13 -5 13 -2 -3 15 -21 24 -26 25 -19
6z"/>
<path d="M1874 3379 c-11 -12 -40 -32 -65 -45 -43 -21 -46 -26 -45 -59 0 -19
4 -35 8 -35 4 0 33 26 65 58 32 31 61 57 64 57 4 0 11 4 16 9 5 6 2 6 -6 1
-11 -6 -13 -4 -8 8 10 25 -8 29 -29 6z"/>
<path d="M627 3345 c-4 -8 -3 -16 1 -19 4 -3 9 4 9 15 2 23 -3 25 -10 4z"/>
<path d="M805 3303 c-10 -21 -17 -45 -16 -52 2 -13 0 -13 -16 0 -16 13 -17 12
-5 -3 10 -12 11 -22 3 -36 -8 -15 -7 -23 4 -32 12 -10 13 -8 10 10 -2 13 7 47
21 77 26 53 26 54 47 36 20 -18 20 -18 2 10 -9 15 -20 27 -24 27 -4 0 -16 -17
-26 -37z"/>
<path d="M1652 3270 c-45 -15 -104 -31 -130 -35 -124 -20 -139 -24 -69 -19 37
2 82 7 100 9 19 3 11 -2 -18 -10 -47 -14 -48 -14 -10 -10 22 3 56 7 75 10 l35
6 -30 -14 c-19 -9 -25 -16 -17 -21 7 -4 12 -2 12 3 0 6 14 11 31 11 16 0 28
-4 25 -9 -4 -5 3 -7 14 -4 11 3 17 10 13 16 -3 5 -1 7 5 3 6 -3 22 -1 36 5 21
10 26 19 26 51 0 21 -3 38 -7 37 -5 0 -45 -13 -91 -29z"/>
<path d="M1280 3261 c0 -6 4 -13 10 -16 6 -3 7 1 4 9 -7 18 -14 21 -14 7z"/>
<path d="M880 3235 c-7 -14 -10 -28 -7 -32 4 -3 7 -1 7 5 0 6 7 17 15 26 8 8
11 17 7 20 -5 3 -15 -6 -22 -19z"/>
<path d="M843 3148 c-8 -30 -9 -46 -1 -53 7 -7 9 -5 6 5 -3 8 1 32 8 53 7 20
10 37 6 37 -4 0 -13 -19 -19 -42z"/>
<path d="M1016 3177 c3 -10 9 -15 12 -12 3 3 0 11 -7 18 -10 9 -11 8 -5 -6z"/>
<path d="M1607 3176 c-4 -10 0 -12 14 -9 10 3 16 9 13 14 -8 13 -21 11 -27 -5z"/>
<path d="M1565 3150 c-3 -5 -2 -10 4 -10 5 0 13 5 16 10 3 6 2 10 -4 10 -5 0
-13 -4 -16 -10z"/>
<path d="M765 3110 c3 -5 8 -10 11 -10 2 0 4 5 4 10 0 6 -5 10 -11 10 -5 0 -7
-4 -4 -10z"/>
<path d="M757 3051 c-4 -17 -3 -21 5 -13 5 5 8 16 6 23 -3 8 -7 3 -11 -10z"/>
<path d="M5553 2990 c-28 -10 -54 -16 -57 -12 -3 3 -6 -4 -6 -16 0 -21 0 -21
75 5 41 13 75 29 75 34 0 13 -29 10 -87 -11z"/>
<path d="M726 2953 c-6 -14 -5 -15 5 -6 7 7 10 15 7 18 -3 3 -9 -2 -12 -12z"/>
<path d="M5558 2946 c-40 -12 -68 -27 -68 -35 0 -7 6 -11 13 -8 7 3 41 13 75
22 37 11 62 23 62 31 0 17 1 17 -82 -10z"/>
<path d="M705 2919 c-4 -6 -5 -12 -2 -15 2 -3 7 2 10 11 7 17 1 20 -8 4z"/>
<path d="M5558 2900 c-31 -10 -59 -15 -63 -12 -3 3 -5 -43 -5 -102 0 -107 0
-108 23 -102 12 3 46 10 75 16 31 7 52 17 52 25 0 11 -10 11 -57 -1 -69 -16
-83 -17 -83 -5 0 4 28 14 63 21 61 13 86 24 75 35 -3 3 -34 -1 -69 -9 -62 -15
-87 -13 -60 3 8 5 40 14 72 21 37 8 59 18 59 26 0 8 -1 14 -2 14 -2 0 -28 -7
-58 -15 -64 -17 -80 -18 -80 -6 0 5 14 11 32 15 73 14 108 28 108 40 0 11 -14
9 -67 -5 -37 -10 -69 -17 -71 -14 -8 8 0 12 68 33 35 11 66 24 68 31 5 15 -11
13 -80 -9z"/>
<path d="M805 2899 c-4 -6 -5 -12 -2 -15 2 -3 7 2 10 11 7 17 1 20 -8 4z"/>
<path d="M598 2863 c7 -3 16 -2 19 1 4 3 -2 6 -13 5 -11 0 -14 -3 -6 -6z"/>
<path d="M767 2846 c-4 -10 -1 -13 8 -9 8 3 12 9 9 14 -7 12 -11 11 -17 -5z"/>
<path d="M705 2800 c-3 -5 -1 -10 4 -10 6 0 11 5 11 10 0 6 -2 10 -4 10 -3 0
-8 -4 -11 -10z"/>
<path d="M598 2783 c7 -3 16 -2 19 1 4 3 -2 6 -13 5 -11 0 -14 -3 -6 -6z"/>
<path d="M648 2783 c7 -3 16 -2 19 1 4 3 -2 6 -13 5 -11 0 -14 -3 -6 -6z"/>
<path d="M5565 2675 c-33 -7 -63 -11 -67 -9 -5 3 -8 -24 -8 -59 l0 -65 38 9
c20 4 54 11 75 14 21 3 37 12 37 19 0 11 -13 11 -70 1 -50 -9 -70 -9 -67 -1 2
6 23 14 48 18 72 12 89 18 89 29 0 7 -13 9 -37 5 -21 -4 -53 -9 -70 -13 -20
-3 -33 -1 -33 5 0 6 32 16 70 22 48 8 70 16 70 26 0 16 4 16 -75 -1z"/>
<path d="M5553 2538 l-63 -10 0 -37 0 -38 53 10 c28 5 62 11 75 13 12 3 22 9
22 15 0 7 -24 8 -71 3 -50 -5 -70 -4 -65 4 3 6 35 14 71 17 45 5 65 12 65 21
0 15 1 15 -87 2z"/>
<path d="M1028 2487 c-57 -46 -122 -133 -114 -152 5 -14 -28 -67 -40 -65 -5 0
-14 -18 -20 -42 -11 -42 -11 -42 -15 -13 l-5 30 -13 -27 c-9 -16 -20 -25 -31
-23 -15 3 -16 -1 -10 -32 8 -34 8 -34 -12 -16 -21 18 -21 18 -9 -4 18 -35 12
-50 -10 -23 -15 19 -18 20 -10 4 5 -12 6 -26 1 -34 -7 -12 -10 -11 -16 3 -5
13 -10 15 -19 7 -10 -8 -21 -7 -42 6 -15 10 -7 -1 18 -24 41 -36 69 -82 51
-82 -3 0 -22 15 -42 32 -19 18 -27 24 -18 14 16 -18 16 -20 0 -33 -15 -12 -16
-13 0 -7 10 3 20 -2 27 -15 15 -27 13 -40 -2 -19 -9 11 -18 14 -27 8 -12 -7
-11 -10 3 -16 14 -5 15 -9 6 -20 -9 -11 -8 -14 4 -14 13 0 32 -39 22 -48 -2
-2 -20 14 -40 35 -34 35 -35 35 -11 4 15 -19 25 -40 22 -47 -3 -8 -1 -14 4
-14 6 0 10 -8 10 -18 0 -10 3 -22 8 -28 4 -5 -6 4 -21 20 -18 19 -24 32 -17
36 8 5 2 17 -15 36 l-26 29 17 -27 c10 -18 12 -28 5 -28 -6 0 -14 7 -17 15 -6
14 -8 13 -21 -2 -13 -16 -14 -15 -9 12 l6 30 -18 -33 -18 -33 -12 26 c-16 36
-14 46 3 15 19 -33 19 -13 0 41 -9 24 -23 47 -31 52 -10 5 -13 16 -9 30 5 16
4 18 -3 8 -8 -11 -11 -9 -17 8 -3 12 -10 19 -15 16 -5 -3 -14 5 -21 17 -16 32
-50 68 -59 63 -4 -3 -16 5 -26 18 l-19 22 23 -19 c12 -11 22 -15 22 -9 0 5
-15 20 -32 33 -19 14 -27 16 -19 7 23 -28 2 -19 -42 18 -23 20 -46 34 -51 32
-6 -3 -23 2 -37 9 -15 7 -29 10 -33 7 -10 -11 -7 -20 9 -20 24 0 95 -35 89
-44 -3 -5 0 -10 5 -10 6 -1 17 -2 24 -3 6 -1 11 -7 9 -14 -1 -7 6 -12 16 -12
10 0 36 -18 57 -41 l40 -41 -35 21 c-19 11 -43 21 -54 21 -10 0 6 -13 35 -28
36 -19 56 -25 61 -18 11 16 10 -6 -1 -23 -5 -7 -15 -10 -22 -7 -9 5 -9 3 1 -6
8 -7 16 -18 16 -23 1 -6 5 -27 8 -47 4 -21 5 -38 2 -38 -2 0 -27 36 -55 79
-57 89 -85 117 -50 50 40 -78 40 -77 17 -71 -14 3 -19 1 -14 -6 4 -7 15 -12
24 -12 10 0 22 -8 28 -18 9 -15 8 -18 -7 -18 -9 0 -15 4 -13 8 9 14 -9 9 -26
-7 -18 -16 -50 -11 -50 8 0 7 4 7 12 -1 14 -14 32 -16 24 -3 -4 5 0 12 6 14 7
3 -10 6 -38 6 -75 1 -88 -20 -29 -48 51 -24 57 -35 18 -38 -14 0 -21 2 -15 6
7 4 -22 13 -63 20 -82 13 -108 31 -48 32 21 0 32 3 25 6 -7 3 -34 2 -60 -2
-42 -7 -45 -8 -23 -16 36 -14 21 -19 -26 -9 -26 6 -51 6 -65 1 -21 -9 -21 -10
-3 -11 17 0 18 -2 5 -11 -11 -7 -6 -9 21 -5 20 3 43 8 52 12 10 3 17 2 17 -3
0 -5 16 -7 35 -5 35 4 48 -11 19 -22 -9 -3 -12 -2 -9 5 8 12 -44 1 -63 -14
-21 -17 5 -26 47 -16 47 11 63 11 57 0 -3 -5 15 -12 41 -16 39 -6 56 -17 119
-78 69 -67 166 -186 117 -144 -16 14 -22 15 -25 5 -4 -11 -8 -10 -21 1 -9 7
-14 18 -11 23 4 6 10 5 15 -3 4 -7 12 -10 16 -5 8 8 -53 66 -70 66 -6 0 2 -9
17 -21 30 -24 26 -39 -12 -40 -27 -1 -27 -1 3 -8 28 -6 27 -7 -22 -19 -28 -8
-54 -20 -57 -27 -3 -10 6 -8 37 6 45 20 95 27 67 9 -10 -7 -4 -8 20 -4 33 5
37 3 70 -47 19 -29 42 -55 50 -58 13 -4 13 -2 1 12 -7 10 -9 17 -3 17 5 0 17
-11 26 -25 9 -14 12 -25 6 -25 -5 0 -10 4 -10 8 0 4 -8 8 -17 8 -10 1 -31 4
-48 8 l-30 7 30 -15 c17 -8 24 -15 18 -15 -7 -1 -13 -5 -13 -11 0 -5 7 -6 17
-3 10 4 14 2 10 -4 -5 -7 1 -9 15 -5 20 5 21 3 11 -10 -10 -11 -10 -17 -1 -26
22 -22 1 -22 -28 0 -23 18 -26 19 -14 3 14 -17 13 -18 -3 -12 -11 4 -31 9 -45
12 -25 5 -26 5 -4 -4 12 -6 22 -15 22 -20 0 -5 -10 -7 -22 -4 -22 4 -22 4 -3
-8 11 -7 32 -14 46 -15 22 -2 26 2 22 20 -4 17 -3 18 6 5 7 -10 21 -15 43 -13
18 2 77 4 131 4 67 1 97 5 97 13 0 7 5 4 11 -6 7 -12 22 -17 47 -17 36 2 110
-6 162 -16 24 -4 24 -4 6 11 -19 14 -19 15 10 16 16 1 21 3 12 6 -10 2 -15 10
-11 19 4 10 -3 14 -22 14 -24 0 -26 2 -15 16 12 13 10 14 -16 3 -16 -7 -38
-21 -50 -31 -11 -10 -23 -18 -27 -18 -9 0 -9 37 1 42 4 2 18 16 32 32 l25 29
-29 -7 -28 -7 21 27 c35 45 53 52 135 57 65 3 81 1 102 -15 13 -11 31 -18 39
-15 7 3 19 -1 26 -9 6 -8 14 -12 17 -9 8 8 -41 44 -70 50 -46 11 -47 29 -2 21
32 -6 37 -5 26 5 -13 14 -71 18 -117 7 -25 -6 -23 -4 10 12 48 23 33 27 -19 5
-20 -9 -34 -20 -31 -25 3 -6 -1 -7 -10 -4 -21 8 -11 18 52 55 l48 28 -42 -4
c-22 -2 -56 -11 -75 -21 -29 -15 -31 -15 -20 -1 8 9 34 24 58 33 24 9 43 19
41 21 -3 2 -17 -1 -32 -7 -44 -17 -39 -5 12 29 39 25 44 31 25 31 -13 0 -32
-5 -43 -10 -32 -18 -21 -2 18 25 41 27 29 34 -17 10 -44 -23 -36 -10 10 16 21
12 37 26 33 31 -3 6 -30 7 -61 5 -44 -4 -52 -3 -37 6 11 6 38 10 60 9 22 -1
47 3 55 9 11 8 5 9 -25 4 l-40 -6 25 20 c27 22 45 27 35 11 -3 -5 1 -10 10
-10 9 0 14 4 11 9 -4 5 4 7 16 3 13 -3 19 -1 15 5 -4 6 4 9 18 7 14 -1 23 2
20 6 -3 5 3 10 12 13 17 4 17 4 1 11 -10 5 -30 1 -48 -7 -16 -9 -30 -15 -30
-14 0 1 14 16 32 32 18 17 29 24 24 18 -9 -16 42 -15 63 1 8 6 17 9 20 7 3 -2
11 5 16 16 8 16 20 20 51 19 30 -1 40 3 37 12 -3 6 -10 12 -17 13 -6 0 -20 3
-31 5 -47 11 -85 12 -85 2 0 -6 11 -8 25 -6 31 6 33 -7 3 -16 -22 -5 -22 -6
-3 -20 19 -14 19 -15 -10 -12 -40 5 -39 4 -26 20 11 13 4 14 -45 10 -32 -2
-61 -9 -65 -15 -3 -6 -9 -9 -13 -7 -13 6 -126 -95 -132 -119 -5 -18 -9 -21
-15 -11 -11 17 -11 31 -1 24 5 -3 14 15 20 40 10 38 15 43 29 35 13 -7 27 -2
56 21 61 49 176 101 224 101 25 0 40 4 36 10 -4 6 9 7 33 3 30 -5 35 -4 24 4
-12 9 -9 11 13 7 18 -3 26 0 24 7 -4 13 -67 21 -67 9 0 -4 -21 -9 -48 -11 -73
-4 -76 -4 -90 -15 -7 -5 -15 -7 -18 -4 -3 3 6 13 20 22 14 10 23 21 20 26 -3
5 -28 -9 -55 -31 -26 -23 -53 -39 -59 -35 -14 9 -52 -4 -45 -16 4 -5 -2 -10
-12 -10 -10 -1 -32 -3 -49 -5 -30 -2 -89 -32 -81 -40 2 -3 21 3 41 11 20 9 41
13 46 10 5 -3 11 -1 15 5 14 22 24 8 12 -17 -15 -37 -28 -45 -42 -27 -10 14
-17 13 -63 -4 -29 -11 -52 -16 -52 -12 0 5 9 11 20 15 11 3 19 11 17 17 -1 6
13 21 31 34 18 12 27 24 20 26 -9 3 -9 6 0 12 7 4 12 2 12 -3 0 -20 41 -11 60
12 16 19 22 21 48 11 31 -12 43 -5 67 36 5 11 3 10 -10 -1 -12 -12 -28 -15
-56 -12 -29 4 -45 1 -59 -12 -11 -10 -29 -19 -40 -20 -11 -1 -32 -11 -46 -24
-46 -40 -39 -12 8 34 33 31 41 45 31 49 -8 3 -12 2 -9 -3 7 -10 -58 -73 -67
-65 -4 4 -7 -1 -7 -11 0 -10 -3 -16 -6 -13 -3 3 1 29 10 57 8 28 14 52 13 54
-5 6 56 117 62 113 4 -3 7 5 6 17 -1 12 5 30 13 40 9 10 10 17 4 17 -15 0 -42
-40 -42 -62 0 -10 -6 -17 -12 -15 -7 1 -14 -8 -16 -20 -2 -13 -8 -23 -13 -23
-5 0 -9 -9 -9 -19 0 -11 -9 -26 -21 -34 -12 -9 -16 -18 -10 -21 11 -7 5 -32
-12 -54 -9 -11 -12 -10 -19 3 -10 17 10 85 25 85 4 0 5 4 2 10 -3 5 3 20 14
32 23 24 20 38 -3 19 -30 -25 -28 11 3 61 25 39 28 49 14 44 -10 -4 7 18 38
49 30 31 62 57 70 59 8 1 24 7 36 14 12 7 28 12 36 12 8 0 21 7 28 16 12 15
11 16 -11 9 -14 -4 -38 -17 -55 -28 l-30 -21 18 21 c16 18 32 63 22 63 -2 0
-28 -19 -57 -43z m-211 -339 c-3 -7 -5 -2 -5 12 0 14 2 19 5 13 2 -7 2 -19 0
-25z m-97 -68 c0 -5 -2 -10 -4 -10 -3 0 -8 5 -11 10 -3 6 -1 10 4 10 6 0 11
-4 11 -10z m37 -12 c-3 -8 -6 -5 -6 6 -1 11 2 17 5 13 3 -3 4 -12 1 -19z
m-270 -55 c10 -15 11 -23 3 -28 -6 -3 -9 -1 -8 7 2 7 -4 12 -12 10 -8 -2 -12
0 -8 4 4 4 2 14 -5 22 -10 12 -9 14 2 11 8 -3 21 -15 28 -26z m447 -2 c3 -5
-1 -14 -8 -20 -12 -10 -13 -8 -9 8 6 23 9 25 17 12z m283 -37 c-3 -3 -12 -4
-19 -1 -8 3 -5 6 6 6 11 1 17 -2 13 -5z m-737 -34 c8 -15 8 -25 0 -38 -11 -16
-11 -16 -6 1 3 9 1 17 -4 17 -6 0 -10 9 -10 20 0 25 6 25 20 0z m413 -12 c-2
-5 4 -8 14 -9 14 0 15 -2 3 -6 -8 -3 -23 -13 -33 -21 -16 -15 -17 -14 -11 1 3
9 10 17 15 17 4 0 6 7 2 16 -5 14 -9 12 -20 -10 -20 -38 -25 -32 -6 8 12 27
19 32 28 23 7 -7 11 -15 8 -19z m-606 5 c3 -7 -3 -9 -16 -6 -12 3 -21 10 -21
15 0 13 32 6 37 -9z m858 -3 c-10 -11 -23 -20 -29 -20 -6 1 0 10 13 20 30 26
39 26 16 0z m-739 -26 c24 -14 44 -27 44 -29 0 -7 -100 40 -100 48 0 12 9 9
56 -19z m352 1 c-3 -3 -9 2 -12 12 -6 14 -5 15 5 6 7 -7 10 -15 7 -18z m186 0
c-4 -8 -11 -15 -16 -15 -6 0 -5 6 2 15 7 8 14 15 16 15 2 0 1 -7 -2 -15z
m-137 -27 c-3 -7 -5 -2 -5 12 0 14 2 19 5 13 2 -7 2 -19 0 -25z m293 17 c0 -8
-10 -19 -22 -25 -21 -10 -21 -10 -5 3 9 8 17 19 17 26 0 6 2 11 5 11 3 0 5 -7
5 -15z m-448 -60 c9 -17 6 -16 -16 4 -14 14 -26 32 -26 40 1 13 4 12 16 -4 9
-11 20 -29 26 -40z m-232 24 c0 -6 -4 -7 -10 -4 -5 3 -10 11 -10 16 0 6 5 7
10 4 6 -3 10 -11 10 -16z m-86 -10 c3 -2 -9 -5 -26 -6 -18 0 -26 2 -18 7 13 8
36 8 44 -1z m131 1 c3 -5 -1 -10 -9 -10 -9 0 -16 5 -16 10 0 6 4 10 9 10 6 0
13 -4 16 -10z m498 -44 c3 -8 0 -17 -7 -19 -10 -4 -12 1 -9 14 6 23 9 24 16 5z
m-208 -136 c10 -11 16 -20 13 -20 -3 0 -13 9 -23 20 -10 11 -16 20 -13 20 3 0
13 -9 23 -20z m-215 -20 c0 -5 -5 -10 -11 -10 -5 0 -7 5 -4 10 3 6 8 10 11 10
2 0 4 -4 4 -10z m339 -7 c-12 -15 -12 -16 4 -10 42 17 52 19 38 9 -11 -8 -10
-11 5 -15 18 -5 17 -6 -1 -4 -11 0 -30 -3 -43 -7 -32 -11 -39 0 -17 24 22 24
33 27 14 3z m-308 -10 c13 -16 12 -17 -3 -4 -10 7 -18 15 -18 17 0 8 8 3 21
-13z m479 -7 c0 -2 -8 -10 -17 -17 -16 -13 -17 -12 -4 4 13 16 21 21 21 13z
m-515 -15 c3 -5 1 -12 -5 -16 -5 -3 -10 1 -10 9 0 18 6 21 15 7z m35 -66 c7
-8 19 -15 26 -15 8 0 14 -4 14 -10 0 -5 -4 -10 -9 -10 -14 0 -68 49 -55 50 6
0 17 -7 24 -15z m246 -42 c-2 -10 1 -21 6 -24 5 -3 2 -9 -7 -12 -11 -5 -14 -3
-9 5 5 7 2 9 -8 6 -13 -5 -14 -3 -4 18 13 28 25 32 22 7z m44 2 c0 -8 6 -15
13 -15 8 0 7 -4 -3 -10 -24 -15 -30 -12 -28 15 2 27 18 35 18 10z m-249 -64
c-8 -5 -11 -15 -8 -23 10 -28 -8 -40 -28 -18 -15 17 -16 20 -3 20 9 0 18 7 22
15 3 8 11 15 18 15 10 0 9 -3 -1 -9z"/>
<path d="M1190 2467 c3 -2 25 -14 50 -26 25 -12 37 -16 28 -8 -10 8 -16 16
-13 19 3 2 -1 5 -7 5 -7 0 -24 3 -38 8 -14 4 -23 5 -20 2z"/>
<path d="M5615 2455 c-5 -2 -36 -6 -67 -10 -36 -4 -58 -11 -58 -19 0 -9 15
-10 58 -5 31 4 65 8 75 8 9 1 17 8 17 16 0 15 -5 17 -25 10z"/>
<path d="M5548 2403 c-45 -3 -58 -8 -58 -20 0 -13 7 -14 38 -9 20 3 54 6 75 6
26 0 37 4 37 15 0 8 -8 14 -17 13 -10 -1 -44 -3 -75 -5z"/>
<path d="M5468 2257 c-3 -13 -1 -32 3 -43 5 -13 8 -7 8 24 1 46 -4 55 -11 19z"/>
<path d="M910 2255 c-20 -24 -6 -28 15 -5 10 11 13 20 8 20 -6 0 -16 -7 -23
-15z"/>
<path d="M5363 2246 c-76 -8 -82 -10 -78 -30 2 -11 4 -34 4 -49 l1 -28 72 3
c46 2 73 7 76 16 3 9 -15 12 -69 12 -87 0 -84 12 4 17 70 5 80 11 75 44 -3 24
-3 24 -85 15z m77 -26 c0 -6 -30 -10 -71 -10 -44 0 -68 4 -64 10 3 6 35 10 71
10 36 0 64 -4 64 -10z"/>
<path d="M5533 2253 c-24 -2 -43 -9 -43 -15 0 -6 10 -8 23 -4 12 3 46 6 75 6
28 0 52 5 52 10 0 10 -22 10 -107 3z"/>
<path d="M5490 2006 l0 -214 71 -7 c65 -7 90 -3 77 10 -3 3 -33 9 -67 13 -34
4 -60 11 -59 17 3 9 50 9 101 -1 19 -4 27 -2 27 9 0 11 -19 16 -70 21 -38 4
-70 12 -70 18 0 7 24 8 71 3 58 -6 71 -5 67 6 -3 9 -25 15 -64 17 -88 5 -93
22 -6 22 40 0 72 4 72 9 0 4 -31 12 -70 15 -39 4 -70 12 -70 18 0 7 23 8 70 4
60 -6 70 -5 70 8 0 13 -13 16 -70 16 -40 0 -70 4 -70 10 0 6 30 10 70 10 39 0
70 4 70 9 0 11 -50 21 -101 21 -22 0 -39 5 -39 10 0 6 30 10 70 10 40 0 70 4
70 10 0 6 -30 10 -70 10 -40 0 -70 4 -70 10 0 6 30 10 70 10 56 0 70 3 70 15
0 12 -14 15 -70 15 -40 0 -70 4 -70 10 0 6 30 10 70 10 40 0 70 4 70 10 0 6
-30 10 -70 10 -40 0 -70 4 -70 10 0 6 30 10 70 10 56 0 70 3 70 15 0 12 -15
15 -75 15 l-75 0 0 -214z"/>
<path d="M1020 2199 c-28 -11 -60 -38 -60 -51 0 -15 14 -8 54 27 22 19 37 35
35 34 -2 0 -15 -5 -29 -10z"/>
<path d="M644 2177 c3 -10 6 -22 6 -25 0 -4 9 -13 21 -20 18 -12 19 -11 10 5
-5 10 -17 27 -26 38 -15 18 -16 18 -11 2z"/>
<path d="M247 2115 c15 -14 33 -28 38 -32 6 -5 22 -17 35 -28 l25 -20 -26 35
c-24 31 -71 67 -92 69 -4 1 5 -10 20 -24z"/>
<path d="M456 2110 c10 -16 19 -28 21 -26 7 7 -17 56 -27 56 -7 0 -4 -13 6
-30z"/>
<path d="M1130 2130 c-9 -6 -10 -10 -3 -10 6 0 15 5 18 10 8 12 4 12 -15 0z"/>
<path d="M890 2115 c-7 -9 -11 -17 -9 -20 3 -2 10 5 17 15 14 24 10 26 -8 5z"/>
<path d="M1310 2120 c-8 -5 -10 -10 -5 -10 6 0 17 5 25 10 8 5 11 10 5 10 -5
0 -17 -5 -25 -10z"/>
<path d="M5284 1700 c1 -334 3 -429 13 -426 7 3 40 -4 73 -16 34 -11 64 -18
67 -15 11 12 -9 25 -66 41 -33 9 -63 21 -66 26 -9 14 2 12 69 -10 70 -24 66
-23 66 -7 0 7 -29 21 -65 31 -56 16 -94 36 -68 36 8 0 19 -3 103 -29 22 -7 30
-6 30 3 0 7 -28 21 -62 31 -102 30 -109 47 -8 20 65 -18 70 -18 70 -5 0 5 -33
19 -72 31 -85 25 -78 37 8 15 32 -8 60 -13 62 -11 9 8 -9 23 -35 29 -81 20
-103 28 -103 37 0 6 4 8 8 5 4 -2 36 -11 70 -19 48 -11 62 -12 62 -2 0 7 -30
19 -67 29 -36 9 -69 18 -71 21 -13 13 9 13 58 0 67 -18 99 -20 83 -4 -6 6 -40
17 -77 26 -36 8 -66 19 -66 24 0 9 14 7 94 -13 39 -9 57 -5 40 11 -5 4 -37 14
-71 21 -35 7 -63 17 -63 21 0 8 21 6 103 -11 27 -6 37 -5 37 5 0 8 -25 18 -65
25 -36 7 -68 17 -72 23 -4 6 3 8 18 4 60 -14 119 -19 119 -9 0 10 -82 32 -120
32 -11 0 -20 5 -20 11 0 10 32 8 114 -8 21 -4 27 -2 24 8 -3 8 -32 18 -71 25
-37 6 -70 14 -75 19 -7 7 96 -1 131 -11 11 -3 17 0 17 10 0 10 -17 16 -65 21
-36 4 -68 12 -71 17 -4 7 18 8 65 3 81 -8 102 10 24 20 -87 12 -105 26 -25 19
47 -3 72 -2 72 5 0 11 -18 16 -92 26 -27 3 -48 10 -48 15 0 5 12 8 28 5 96
-15 112 -15 112 -1 0 9 -20 15 -70 20 -38 4 -70 10 -70 14 0 4 32 6 70 4 45
-3 70 0 70 6 0 6 -31 14 -70 18 -38 3 -70 11 -70 15 0 5 32 6 70 3 45 -5 70
-3 70 3 0 14 -35 23 -92 23 -29 0 -48 4 -48 11 0 9 20 10 70 5 59 -5 70 -4 70
9 0 12 -14 15 -70 15 -40 0 -70 4 -70 10 0 6 30 10 70 10 40 0 70 4 70 10 0 6
-28 10 -64 10 -36 0 -68 5 -71 10 -4 6 20 10 64 10 72 0 103 19 34 21 -44 1
-96 8 -102 15 -2 2 28 4 67 4 57 0 72 3 72 15 0 12 -15 15 -78 15 l-78 0 0
-430z"/>
<path d="M963 2113 c4 -3 1 -13 -6 -22 -11 -14 -10 -14 5 -2 16 12 16 31 1 31
-4 0 -3 -3 0 -7z"/>
<path d="M1283 2043 c9 -2 25 -2 35 0 9 3 1 5 -18 5 -19 0 -27 -2 -17 -5z"/>
<path d="M1030 1979 c0 -5 5 -7 10 -4 6 3 10 8 10 11 0 2 -4 4 -10 4 -5 0 -10
-5 -10 -11z"/>
<path d="M1330 1950 c8 -5 22 -9 30 -9 10 0 8 3 -5 9 -27 12 -43 12 -25 0z"/>
<path d="M1700 1939 c-14 -6 -38 -24 -54 -41 -24 -28 -28 -37 -23 -76 3 -24
11 -48 18 -53 8 -5 39 -8 69 -7 30 0 44 3 31 5 -34 7 -52 28 -53 63 -1 36 16
71 43 88 17 11 21 9 29 -10 8 -21 9 -22 11 -3 1 11 1 23 0 28 -3 20 18 2 36
-31 20 -38 21 -108 2 -96 -5 3 -9 -2 -9 -10 0 -8 -8 -20 -17 -25 -14 -8 -5
-10 38 -11 50 0 57 3 67 25 16 35 15 70 -4 106 -9 19 -21 29 -30 25 -7 -3 -13
0 -11 6 5 24 -96 35 -143 17z"/>
<path d="M158 1823 c7 -3 16 -2 19 1 4 3 -2 6 -13 5 -11 0 -14 -3 -6 -6z"/>
<path d="M3660 1821 c0 -8 -6 -11 -15 -7 -10 4 -19 -2 -25 -17 -5 -12 -9 -16
-9 -9 -2 28 -21 9 -21 -20 l-1 -33 -16 35 -16 35 -7 -30 -7 -30 -13 27 c-10
21 -15 24 -25 15 -11 -10 -5 -19 26 -48 22 -19 36 -38 32 -42 -3 -4 0 -7 7 -7
7 0 11 -3 7 -6 -3 -4 -36 19 -72 51 -78 69 -102 66 -27 -3 29 -27 54 -46 57
-44 3 3 5 -3 5 -13 0 -19 -1 -19 -68 43 -15 13 -32 16 -32 5 0 -4 19 -24 43
-45 23 -20 36 -38 29 -38 -7 0 -23 9 -35 20 -47 44 -126 100 -138 100 -8 0 -6
-5 6 -12 11 -6 46 -38 79 -69 45 -45 66 -59 90 -59 17 -1 60 -2 96 -3 l65 -2
3 99 c2 59 -1 103 -8 110 -7 7 -10 6 -10 -3z m-95 -171 c3 -5 1 -10 -4 -10 -6
0 -11 5 -11 10 0 6 2 10 4 10 3 0 8 -4 11 -10z"/>
<path d="M2758 1770 c2 -16 6 -30 8 -30 2 0 4 14 4 30 0 17 -4 30 -8 30 -5 0
-7 -13 -4 -30z"/>
<path d="M2804 1745 c1 -40 4 -51 12 -42 12 13 7 97 -6 97 -4 0 -7 -25 -6 -55z"/>
<path d="M2850 1770 c0 -9 -5 -21 -12 -28 -7 -7 -8 -12 -2 -12 5 0 21 13 36
29 l28 29 -25 -2 c-15 0 -25 -7 -25 -16z"/>
<path d="M2940 1783 c-8 -3 -26 -18 -39 -32 -12 -14 -37 -41 -53 -59 -56 -60
-24 -42 48 29 40 38 69 69 65 68 -3 0 -13 -3 -21 -6z"/>
<path d="M2983 1766 c-17 -14 -34 -22 -38 -18 -5 4 -6 2 -2 -4 3 -5 -5 -18
-19 -28 -13 -11 -24 -23 -24 -28 0 -5 -9 -19 -21 -31 -11 -12 -30 -35 -41 -52
-12 -16 25 17 80 75 99 103 123 135 65 86z"/>
<path d="M3055 1770 c-4 -6 -11 -8 -16 -4 -5 3 -8 1 -7 -3 2 -5 -39 -54 -89
-108 -51 -54 -91 -100 -89 -102 2 -2 54 48 117 112 63 63 109 115 102 115 -6
0 -15 -5 -18 -10z"/>
<path d="M3402 1751 c13 -16 26 -26 31 -24 14 8 7 18 -24 35 l-30 18 23 -29z"/>
<path d="M5490 1489 c0 -230 3 -287 13 -283 7 2 39 -5 71 -16 70 -24 66 -23
66 -7 0 7 -31 23 -70 36 -38 12 -70 27 -70 33 0 5 6 8 13 6 63 -24 119 -39
124 -34 11 11 -10 23 -69 40 -31 9 -60 21 -63 26 -9 14 1 13 73 -9 48 -15 62
-16 62 -6 0 7 -30 22 -70 34 -38 12 -70 26 -70 31 0 5 30 0 67 -11 81 -23 73
-22 73 -6 0 8 -23 19 -52 26 -29 8 -61 18 -71 23 -35 18 -10 19 52 2 33 -10
64 -15 67 -11 13 13 -8 25 -66 37 -33 7 -63 17 -66 21 -8 13 23 11 84 -5 42
-12 52 -12 52 -1 0 8 -28 20 -70 30 -38 9 -70 21 -70 26 0 12 5 11 70 -6 68
-18 70 -18 70 -2 0 8 -24 18 -65 26 -36 7 -68 17 -71 22 -7 12 14 11 76 -2 52
-11 77 -6 50 11 -8 5 -35 12 -60 15 -46 6 -79 20 -70 29 5 4 88 -9 123 -20 11
-3 17 0 17 9 0 10 -20 19 -65 27 -36 7 -68 17 -72 23 -6 10 23 7 105 -9 25 -5
32 -3 32 9 0 11 -16 17 -58 22 -56 6 -92 19 -82 28 3 3 33 0 68 -6 56 -9 84
-6 70 8 -2 3 -31 10 -64 16 -79 14 -98 33 -24 24 30 -3 63 -9 73 -11 10 -4 17
0 17 9 0 11 -17 17 -58 22 -56 6 -92 19 -82 28 3 3 34 0 68 -5 35 -5 66 -7 69
-4 12 11 -10 26 -40 26 -18 0 -49 4 -69 9 l-38 9 0 -289z"/>
<path d="M3072 1728 c-124 -130 -165 -175 -173 -190 -16 -31 -2 -20 48 34 26
29 79 86 117 125 38 40 65 73 59 73 -5 0 -28 -19 -51 -42z"/>
<path d="M3114 1705 c-33 -36 -58 -65 -55 -65 3 -1 -4 -6 -16 -13 -25 -14 -94
-99 -87 -107 3 -3 30 22 60 55 144 158 175 195 167 195 -5 0 -36 -29 -69 -65z"/>
<path d="M3280 1753 c0 -4 25 -26 54 -48 30 -22 51 -44 48 -49 -3 -5 0 -6 6
-2 6 4 17 -2 24 -14 7 -11 22 -20 33 -20 16 0 13 5 -15 30 -54 46 -150 112
-150 103z"/>
<path d="M3190 1735 c0 -8 -25 -40 -55 -70 -31 -30 -53 -55 -48 -55 4 0 -10
-18 -32 -40 -21 -22 -36 -42 -32 -46 5 -6 63 52 147 149 18 21 34 36 36 34 10
-10 -20 -67 -42 -82 -14 -9 -29 -27 -34 -41 -6 -15 -15 -22 -22 -18 -7 4 -8 3
-4 -4 4 -7 2 -12 -3 -12 -6 0 -11 -9 -11 -20 0 -11 5 -20 10 -20 6 0 10 6 10
13 0 8 11 24 25 37 25 24 35 47 13 34 -7 -4 -8 -3 -4 5 4 6 12 9 17 5 5 -3 18
5 29 18 l19 23 1 -22 c0 -25 -44 -81 -74 -93 -18 -8 -19 -9 -3 -9 10 -1 25 -8
33 -16 22 -21 36 -19 22 4 -9 15 -7 24 10 46 16 20 22 23 22 11 0 -9 -7 -19
-15 -22 -20 -8 -19 -24 0 -24 9 0 15 -7 13 -16 -2 -10 2 -19 8 -21 14 -5 26
49 13 62 -5 5 -9 28 -9 52 0 36 3 42 18 37 14 -5 14 -4 2 4 -8 6 -18 8 -22 6
-4 -3 -8 10 -8 28 0 42 -10 78 -21 78 -5 0 -9 -7 -9 -15z"/>
<path d="M3244 1725 c8 -8 17 -15 21 -15 12 0 94 -73 90 -80 -3 -4 7 -7 21 -7
13 0 24 1 22 2 -99 81 -201 146 -154 100z"/>
<path d="M3240 1680 c6 -11 14 -19 18 -17 8 4 43 -29 37 -35 -2 -2 6 -4 18 -5
18 -2 14 5 -23 37 -50 44 -66 50 -50 20z"/>
<path d="M378 1643 c7 -3 16 -2 19 1 4 3 -2 6 -13 5 -11 0 -14 -3 -6 -6z"/>
<path d="M2204 1633 c19 -60 30 -180 27 -280 l-1 -21 -42 22 c-140 72 -308
133 -331 119 -5 -3 17 -20 49 -37 33 -17 97 -59 144 -92 107 -78 170 -110 180
-94 5 8 10 9 14 2 3 -6 2 -13 -4 -17 -6 -4 -7 -11 -4 -17 4 -6 2 -8 -3 -5 -6
4 -13 -3 -16 -14 -4 -16 -2 -19 11 -14 102 38 131 53 138 70 9 20 74 36 74 18
1 -29 17 -33 71 -17 74 22 109 44 108 69 0 19 -1 19 -9 -2 -10 -25 -34 -30
-46 -11 -5 7 -11 3 -18 -13 -10 -23 -10 -23 -14 9 -3 33 13 66 28 57 5 -3 12
4 15 16 6 17 9 19 16 8 6 -9 7 -3 3 17 -8 41 16 66 79 85 l47 13 0 48 c0 43
-3 50 -26 58 -32 13 -35 13 -32 -2 2 -8 -6 -12 -22 -10 -20 2 -22 1 -10 -7 23
-16 -4 -14 -46 4 -33 14 -64 14 -204 3 -32 -2 -51 2 -45 12 7 12 -40 24 -56
15 -6 -4 -14 -3 -18 2 -3 6 -19 13 -34 17 -24 6 -28 4 -23 -11z m452 -132 c-8
-12 -46 -21 -46 -11 0 5 10 11 23 13 12 2 23 5 25 6 2 0 1 -3 -2 -8z m-79 -53
c-3 -8 -6 -5 -6 6 -1 11 2 17 5 13 3 -3 4 -12 1 -19z m-5 -54 c-9 -16 -10 -14
-9 8 1 15 6 23 11 18 4 -4 4 -16 -2 -26z m-81 -121 c13 -17 13 -17 -6 -3 -11
8 -22 16 -24 17 -2 2 0 3 6 3 6 0 17 -8 24 -17z"/>
<path d="M1158 1623 c7 -3 16 -2 19 1 4 3 -2 6 -13 5 -11 0 -14 -3 -6 -6z"/>
<path d="M3395 1558 l-40 -43 43 40 c39 36 47 45 39 45 -2 0 -21 -19 -42 -42z"/>
<path d="M3431 1539 c-30 -33 -51 -59 -47 -59 3 0 34 27 69 60 34 33 55 59 47
59 -8 -1 -39 -28 -69 -60z"/>
<path d="M3526 1573 c-9 -13 -22 -20 -28 -17 -6 4 -8 3 -5 -3 4 -6 -3 -13 -15
-16 -12 -4 -19 -9 -15 -13 4 -4 0 -16 -10 -26 -9 -10 -12 -18 -7 -18 6 0 37
27 71 59 37 36 54 59 44 58 -10 0 -25 -11 -35 -24z"/>
<path d="M3595 1574 c-16 -13 -37 -30 -45 -37 -8 -6 -19 -10 -25 -9 -5 2 -7 0
-3 -4 4 -4 -2 -15 -14 -25 -20 -18 -20 -19 -2 -19 10 1 47 28 82 60 61 59 66
84 7 34z"/>
<path d="M3250 1496 c0 -9 5 -16 10 -16 6 0 10 4 10 9 0 6 -4 13 -10 16 -5 3
-10 -1 -10 -9z"/>
<path d="M4356 1472 c-8 -14 21 -48 32 -38 3 4 2 10 -4 14 -6 4 -13 14 -16 22
-3 10 -6 11 -12 2z"/>
<path d="M4400 1450 c0 -5 5 -10 11 -10 5 0 7 5 4 10 -3 6 -8 10 -11 10 -2 0
-4 -4 -4 -10z"/>
<path d="M3655 1420 c-3 -5 1 -10 9 -10 8 0 22 -7 30 -16 18 -18 21 -11 6 17
-11 20 -35 25 -45 9z"/>
<path d="M3215 1410 c-3 -5 0 -10 7 -10 9 0 9 -3 -2 -10 -13 -8 -12 -10 3 -10
10 0 17 8 17 20 0 21 -15 27 -25 10z"/>
<path d="M1594 1377 c21 -12 67 -41 103 -65 69 -47 103 -49 103 -8 0 19 -11
28 -52 46 -61 26 -144 50 -173 49 -15 0 -10 -6 19 -22z"/>
<path d="M3660 1396 c0 -2 7 -9 15 -16 13 -11 14 -10 9 4 -5 14 -24 23 -24 12z"/>
<path d="M2847 1362 c-10 -10 -17 -24 -17 -30 0 -6 -10 -13 -22 -15 -17 -3
-14 -5 10 -6 22 -1 32 3 32 14 0 8 9 24 20 35 14 14 16 20 7 20 -8 0 -21 -8
-30 -18z"/>
<path d="M3650 1366 c0 -9 5 -16 10 -16 6 0 10 4 10 9 0 6 -4 13 -10 16 -5 3
-10 -1 -10 -9z"/>
<path d="M2587 1363 c-10 -9 -9 -23 1 -23 5 0 9 7 9 15 0 17 -1 18 -10 8z"/>
<path d="M2900 1361 c0 -6 4 -13 10 -16 6 -3 7 1 4 9 -7 18 -14 21 -14 7z"/>
<path d="M610 1345 c0 -15 -2 -17 -9 -6 -9 13 -19 5 -16 -14 9 -64 20 -87 46
-101 30 -15 40 -28 14 -18 -10 4 -15 0 -15 -15 0 -24 -10 -27 -28 -9 -7 7 -3
-17 8 -58 32 -110 48 -175 55 -226 7 -48 8 -48 45 -48 25 0 40 5 44 16 8 21 8
78 -1 100 -6 16 -7 16 -14 -2 -4 -10 -8 43 -8 119 -1 85 3 137 9 137 6 0 10
-9 10 -20 0 -11 5 -20 12 -20 9 0 9 -3 0 -12 -7 -7 -12 -18 -12 -26 0 -12 3
-12 15 -2 14 12 15 -1 10 -121 -4 -74 -8 -140 -11 -147 -3 -10 5 -12 29 -10
l32 3 9 84 9 85 63 60 c44 43 80 68 123 85 34 13 59 26 57 28 -2 2 -28 -5 -57
-17 -71 -26 -76 -24 -14 7 38 18 43 23 20 19 l-30 -7 25 21 c18 16 20 19 5 12
-11 -6 -29 -20 -39 -31 -21 -23 -42 -29 -30 -8 4 6 -2 3 -14 -7 -25 -21 -31
-36 -7 -16 9 8 15 9 15 2 0 -11 -19 -27 -32 -27 -3 0 -10 -4 -15 -9 -5 -5 -3
-6 5 -2 22 13 13 -1 -12 -17 -23 -15 -23 -15 -21 24 3 50 -3 44 -20 -18 -7
-26 -14 -41 -15 -33 -1 8 -8 -3 -15 -25 -9 -25 -14 -33 -15 -20 -2 17 -3 16
-10 -5 -7 -20 -8 -17 -8 20 0 25 2 39 5 32 7 -19 23 -4 23 23 0 13 5 27 12 31
8 5 9 2 5 -9 -3 -10 -2 -17 3 -17 6 0 10 9 10 20 0 31 23 70 64 109 32 31 49
61 28 47 -4 -2 -14 -1 -22 4 -9 5 -19 5 -27 -2 -9 -7 -13 -7 -13 1 0 6 -9 11
-20 11 -10 0 -42 9 -70 20 -58 23 -126 27 -114 8 6 -10 4 -10 -7 -2 -18 14
-49 14 -49 0 0 -6 -5 -4 -10 4 -8 12 -10 12 -10 -5z m145 -4 c3 -5 2 -12 -3
-15 -5 -3 -9 1 -9 9 0 17 3 19 12 6z m-60 -193 c5 -106 4 -148 -4 -148 -7 0
-11 24 -11 63 0 34 -3 109 -5 167 -4 66 -2 97 3 85 5 -11 13 -86 17 -167z m25
157 c0 -8 -5 -15 -11 -15 -5 0 -8 4 -5 9 4 5 0 12 -6 14 -8 3 -6 6 5 6 9 1 17
-6 17 -14z m220 -9 c0 -2 -8 -10 -17 -17 -16 -13 -17 -12 -4 4 13 16 21 21 21
13z m-220 -61 c0 -5 -5 -3 -10 5 -5 8 -10 20 -10 25 0 6 5 3 10 -5 5 -8 10
-19 10 -25z m57 -7 c-3 -7 -5 -2 -5 12 0 14 2 19 5 13 2 -7 2 -19 0 -25z m-57
-23 c0 -8 -2 -15 -4 -15 -2 0 -6 7 -10 15 -3 8 -1 15 4 15 6 0 10 -7 10 -15z
m77 -17 c-3 -8 -6 -5 -6 6 -1 11 2 17 5 13 3 -3 4 -12 1 -19z m-137 -76 c16
-59 10 -81 -8 -30 -9 26 -20 50 -24 54 -13 13 -9 24 7 18 8 -3 19 -22 25 -42z
m156 -157 l13 60 -5 -54 c-6 -59 -10 -71 -25 -71 -5 0 -8 28 -7 63 l2 62 4
-60 5 -60 13 60z"/>
<path d="M3385 1347 c-67 -27 -168 -83 -164 -92 2 -5 20 -10 39 -11 19 -1 48
-5 63 -9 19 -5 33 -3 45 8 9 8 28 15 42 15 24 -1 271 50 278 56 5 5 -176 38
-228 41 -25 2 -58 -2 -75 -8z"/>
<path d="M438 1343 c7 -3 16 -2 19 1 4 3 -2 6 -13 5 -11 0 -14 -3 -6 -6z"/>
<path d="M3025 1340 c3 -5 13 -10 21 -10 8 0 12 5 9 10 -3 6 -13 10 -21 10 -8
0 -12 -4 -9 -10z"/>
<path d="M520 1324 c0 -9 40 -23 44 -15 3 5 -5 11 -19 13 -14 3 -25 4 -25 2z"/>
<path d="M425 1310 c-3 -5 3 -10 14 -10 12 0 21 5 21 10 0 6 -6 10 -14 10 -8
0 -18 -4 -21 -10z"/>
<path d="M520 1292 c0 -5 7 -13 16 -16 10 -4 14 -1 12 6 -5 15 -28 23 -28 10z"/>
<path d="M565 1280 c3 -5 8 -10 11 -10 2 0 4 5 4 10 0 6 -5 10 -11 10 -5 0 -7
-4 -4 -10z"/>
<path d="M1110 1212 c-13 -31 -37 -73 -52 -92 -101 -128 -120 -164 -111 -214
4 -21 8 -24 19 -15 8 6 14 22 14 36 0 13 7 39 15 59 22 53 96 154 108 147 6
-3 7 -1 3 6 -4 6 -2 18 4 26 15 18 41 105 32 105 -4 0 -18 -26 -32 -58z"/>
<path d="M1246 1255 c-3 -8 -1 -15 4 -15 13 0 22 18 11 24 -5 3 -11 -1 -15 -9z"/>
<path d="M1908 1263 c6 -2 18 -2 25 0 6 3 1 5 -13 5 -14 0 -19 -2 -12 -5z"/>
<path d="M1820 1249 c-19 -5 -14 -7 23 -8 26 -1 47 3 47 9 0 11 -30 10 -70 -1z"/>
<path d="M1633 1233 c9 -2 25 -2 35 0 9 3 1 5 -18 5 -19 0 -27 -2 -17 -5z"/>
<path d="M1927 1228 c-7 -4 -25 -8 -42 -9 -16 0 -24 -3 -17 -6 18 -7 165 7
157 15 -9 9 -84 9 -98 0z"/>
<path d="M1578 1223 c7 -3 16 -2 19 1 4 3 -2 6 -13 5 -11 0 -14 -3 -6 -6z"/>
<path d="M1711 1220 c-13 -7 43 -20 89 -20 23 1 24 2 7 14 -20 15 -76 19 -96
6z"/>
<path d="M4015 1220 c11 -5 27 -9 35 -9 9 0 8 4 -5 9 -11 5 -27 9 -35 9 -9 0
-8 -4 5 -9z"/>
<path d="M5461 1214 c0 -11 3 -14 6 -6 3 7 2 16 -1 19 -3 4 -6 -2 -5 -13z"/>
<path d="M535 1163 c-9 -57 -33 -317 -30 -321 1 -1 10 0 19 4 11 4 16 19 17
53 0 25 2 57 4 71 11 100 16 240 7 240 -5 0 -13 -21 -17 -47z"/>
<path d="M2055 1195 c-5 -2 -40 -6 -77 -10 l-68 -7 1 -31 c2 -31 2 -31 6 -4 2
15 6 27 7 27 2 0 23 -7 46 -15 52 -18 50 -19 51 3 1 11 4 9 9 -8 4 -14 8 -18
9 -9 1 8 8 24 16 35 13 17 14 16 5 -13 -6 -22 -5 -35 3 -40 6 -3 13 -1 15 5
11 35 62 56 77 32 8 -12 25 -13 25 -1 0 5 -21 16 -47 25 -46 16 -59 18 -78 11z"/>
<path d="M5463 1150 c0 -25 2 -35 4 -22 2 12 2 32 0 45 -2 12 -4 2 -4 -23z"/>
<path d="M900 1165 c-7 -9 -11 -17 -9 -20 3 -2 10 5 17 15 14 24 10 26 -8 5z"/>
<path d="M1656 1153 c10 -40 14 -41 14 -5 0 18 -5 32 -10 32 -6 0 -8 -11 -4
-27z"/>
<path d="M1857 1083 c-4 -61 -11 -100 -19 -105 -7 -4 -8 -8 -3 -8 6 0 6 -3 -1
-8 -6 -4 -16 -16 -22 -27 -9 -17 -10 -14 -5 18 4 30 2 37 -10 37 -18 0 -33
-56 -23 -88 7 -21 49 -37 67 -26 5 3 17 0 26 -8 15 -12 16 -10 9 12 -18 59
-19 80 -2 80 10 0 15 -4 11 -10 -9 -15 23 -80 40 -80 8 0 20 11 25 24 5 13 14
27 19 31 31 19 -18 48 -78 46 l-33 0 6 42 c8 60 11 156 4 162 -3 3 -8 -38 -11
-92z"/>
<path d="M1722 1140 c0 -19 2 -27 5 -17 2 9 2 25 0 35 -3 9 -5 1 -5 -18z"/>
<path d="M1812 1140 c0 -19 2 -27 5 -17 2 9 2 25 0 35 -3 9 -5 1 -5 -18z"/>
<path d="M2536 1161 c-3 -5 -26 -7 -51 -6 -25 2 -47 -1 -50 -6 -3 -5 -15 -3
-26 4 -17 10 -23 9 -39 -13 -27 -35 -25 -39 18 -28 81 21 126 28 165 26 24 -1
42 3 45 10 2 7 9 9 15 6 8 -5 8 -2 0 7 -10 10 -16 10 -25 1 -14 -14 -42 -16
-33 -2 3 6 2 10 -4 10 -5 0 -12 -4 -15 -9z"/>
<path d="M998 1153 c-30 -8 -20 -23 15 -23 22 0 28 3 18 9 -11 7 -10 10 5 14
18 4 18 5 -1 5 -11 0 -28 -2 -37 -5z"/>
<path d="M1881 1134 c0 -11 3 -14 6 -6 3 7 2 16 -1 19 -3 4 -6 -2 -5 -13z"/>
<path d="M1831 1114 c0 -11 3 -14 6 -6 3 7 2 16 -1 19 -3 4 -6 -2 -5 -13z"/>
<path d="M2012 1110 c0 -14 2 -19 5 -12 2 6 2 18 0 25 -3 6 -5 1 -5 -13z"/>
<path d="M1672 1090 c0 -14 2 -19 5 -12 2 6 2 18 0 25 -3 6 -5 1 -5 -13z"/>
<path d="M1902 1090 c0 -14 2 -19 5 -12 2 6 2 18 0 25 -3 6 -5 1 -5 -13z"/>
<path d="M1582 1070 c0 -14 2 -19 5 -12 2 6 2 18 0 25 -3 6 -5 1 -5 -13z"/>
<path d="M1734 1012 c2 -35 7 -66 10 -69 8 -9 6 33 -4 87 -8 42 -9 41 -6 -18z"/>
<path d="M1681 1044 c0 -11 3 -14 6 -6 3 7 2 16 -1 19 -3 4 -6 -2 -5 -13z"/>
<path d="M2002 1030 c0 -19 2 -27 5 -17 2 9 2 25 0 35 -3 9 -5 1 -5 -18z"/>
<path d="M751 1024 c0 -11 3 -14 6 -6 3 7 2 16 -1 19 -3 4 -6 -2 -5 -13z"/>
<path d="M1590 1023 c-5 -48 -4 -58 9 -55 7 1 29 -7 48 -18 20 -11 37 -19 39
-17 2 2 1 18 -2 35 -6 29 -10 32 -45 32 -31 0 -38 4 -42 23 l-4 22 -3 -22z"/>
<path d="M1822 1015 c0 -16 2 -22 5 -12 2 9 2 23 0 30 -3 6 -5 -1 -5 -18z"/>
<path d="M870 1015 c0 -8 7 -15 15 -15 8 0 15 7 15 15 0 8 -7 15 -15 15 -8 0
-15 -7 -15 -15z"/>
<path d="M2105 1020 c-4 -6 -10 -8 -14 -6 -4 3 -12 -4 -19 -15 -10 -15 -10
-19 2 -19 16 0 46 26 46 41 0 12 -7 12 -15 -1z"/>
<path d="M1695 990 c10 -50 25 -73 23 -35 -1 17 -8 39 -16 50 -13 18 -13 17
-7 -15z"/>
<path d="M3284 1005 c-25 -19 -14 -19 22 0 16 8 22 15 13 15 -8 0 -24 -7 -35
-15z"/>
<path d="M2868 1003 c6 -2 18 -2 25 0 6 3 1 5 -13 5 -14 0 -19 -2 -12 -5z"/>
<path d="M5598 1003 c7 -3 16 -2 19 1 4 3 -2 6 -13 5 -11 0 -14 -3 -6 -6z"/>
<path d="M571 933 c7 -12 15 -20 18 -17 3 2 -3 12 -13 22 -17 16 -18 16 -5 -5z"/>
<path d="M1611 913 c26 -33 52 -53 68 -52 13 0 12 2 -3 12 -11 7 -30 22 -42
35 -25 26 -43 30 -23 5z"/>
<path d="M1352 893 c-5 -10 -7 -23 -5 -29 4 -13 -99 -34 -287 -58 -164 -22
-185 -22 -182 -8 1 7 -2 12 -8 12 -5 0 -10 7 -10 16 0 9 -7 14 -17 12 -17 -3
-18 -25 -14 -328 2 -179 6 -343 10 -365 15 -89 24 -23 26 197 2 128 3 237 4
241 0 5 13 7 29 5 l27 -3 -2 -95 -1 -95 10 94 c14 137 15 138 90 146 35 4 116
18 182 31 147 30 146 30 146 -1 0 -24 -14 -34 -24 -16 -9 14 -97 6 -106 -10
-11 -17 7 -25 82 -34 l55 -7 6 -66 c4 -37 10 -120 13 -184 5 -89 10 -118 21
-118 8 0 13 11 13 28 0 70 -22 610 -26 630 -5 26 -20 29 -32 5z m-10 -128 c4
-65 12 -60 -132 -75 -84 -10 -238 -35 -310 -52 -7 -2 -14 5 -15 15 -2 9 1 17
6 17 5 0 9 7 9 16 0 14 -3 14 -15 4 -13 -11 -15 -8 -12 21 2 29 7 34 35 40 29
6 32 4 32 -17 0 -13 5 -24 10 -24 6 0 10 11 10 25 0 20 6 25 33 29 17 3 100
16 182 30 83 13 153 24 157 25 3 1 8 -24 10 -54z m-412 -152 c0 -5 -13 -8 -30
-9 -16 -1 -27 3 -24 7 6 11 54 12 54 2z"/>
<path d="M595 875 c0 -17 6 -26 18 -26 9 -1 22 -2 29 -3 6 -1 13 5 16 12 2 7
-5 12 -19 12 -12 0 -27 7 -33 15 -9 13 -11 11 -11 -10z"/>
<path d="M563 869 c-1 -10 2 -19 8 -19 11 0 12 27 1 34 -4 2 -9 -4 -9 -15z"/>
<path d="M1294 875 c-18 -14 -18 -14 9 -15 17 0 27 5 27 15 0 19 -11 19 -36 0z"/>
<path d="M1792 851 c7 -11 19 -23 27 -26 25 -10 21 1 -10 24 -28 21 -29 21
-17 2z"/>
<path d="M1705 850 c3 -5 8 -10 11 -10 2 0 4 5 4 10 0 6 -5 10 -11 10 -5 0 -7
-4 -4 -10z"/>
<path d="M1895 836 c-11 -8 -25 -12 -32 -9 -7 3 -13 0 -13 -6 0 -17 22 -13 50
9 28 22 24 27 -5 6z"/>
<path d="M503 808 c-6 -7 -13 -44 -16 -83 -4 -38 -11 -106 -16 -150 -28 -235
-41 -368 -37 -373 8 -8 13 13 35 167 11 79 23 146 25 148 3 3 28 11 58 19 l53
13 -57 -3 c-46 -4 -56 -2 -51 10 3 8 0 14 -6 14 -16 0 -13 60 3 66 9 3 19 33
26 76 l12 70 92 -7 c50 -4 110 -10 133 -14 38 -7 42 -6 46 15 2 12 0 29 -4 36
-6 9 -9 10 -9 1 0 -7 -6 -11 -12 -8 -7 2 -70 6 -139 10 -96 4 -129 2 -136 -7z
m135 -15 c-10 -2 -26 -2 -35 0 -10 3 -2 5 17 5 19 0 27 -2 18 -5z"/>
<path d="M1780 816 c0 -2 8 -10 18 -17 15 -13 16 -12 3 4 -13 16 -21 21 -21
13z"/>
<path d="M1629 773 l-24 -28 28 24 c15 14 27 26 27 28 0 8 -8 1 -31 -24z"/>
<path d="M1852 780 c0 -14 2 -19 5 -12 2 6 2 18 0 25 -3 6 -5 1 -5 -13z"/>
<path d="M1591 774 c0 -11 3 -14 6 -6 3 7 2 16 -1 19 -3 4 -6 -2 -5 -13z"/>
<path d="M1776 733 c-3 -10 -9 -24 -12 -30 -4 -9 6 -13 36 -13 34 0 41 3 36
16 -3 9 -6 22 -6 30 0 21 -46 18 -54 -3z"/>
<path d="M1745 729 c-11 -17 1 -21 15 -4 8 9 8 15 2 15 -6 0 -14 -5 -17 -11z"/>
<path d="M777 714 c-8 -8 1 -24 14 -24 5 0 9 7 9 15 0 15 -12 20 -23 9z"/>
<path d="M1673 713 c-22 -8 -14 -23 12 -23 16 0 25 6 25 15 0 15 -14 18 -37 8z"/>
<path d="M772 640 c-2 -34 0 -40 18 -40 21 0 25 16 14 58 -10 36 -30 26 -32
-18z"/>
<path d="M1561 653 c-10 -26 -10 -27 4 -9 8 11 15 23 15 28 0 15 -7 8 -19 -19z"/>
<path d="M1118 633 c7 -3 16 -2 19 1 4 3 -2 6 -13 5 -11 0 -14 -3 -6 -6z"/>
<path d="M85 620 c-17 -7 -15 -9 13 -9 17 -1 32 4 32 9 0 12 -17 12 -45 0z"/>
<path d="M769 579 c16 -6 28 -6 35 1 7 7 -1 10 -24 9 -33 0 -34 -1 -11 -10z"/>
<path d="M733 503 c9 -2 23 -2 30 0 6 3 -1 5 -18 5 -16 0 -22 -2 -12 -5z"/>
<path d="M5193 448 c20 -11 152 -26 180 -21 43 8 31 21 -25 27 -65 8 -171 3
-155 -6z"/>
<path d="M913 345 c0 -27 2 -38 4 -22 2 15 2 37 0 50 -2 12 -4 0 -4 -28z"/>
<path d="M5585 310 c-25 -11 1 -11 35 0 20 6 21 8 5 8 -11 0 -29 -3 -40 -8z"/>
<path d="M5068 303 c-10 -2 -18 -9 -18 -14 0 -14 53 -10 74 6 19 14 18 15 -10
14 -16 -1 -37 -3 -46 -6z"/>
<path d="M5472 279 c-29 -5 -69 -16 -90 -25 -22 -9 -67 -15 -112 -16 -77 0
-184 -15 -126 -17 16 0 124 -17 240 -36 116 -19 221 -37 234 -39 19 -3 22 1
22 28 l0 32 -97 13 c-54 7 -106 13 -115 13 -10 -1 -20 3 -23 8 -3 4 22 13 55
18 33 6 68 16 77 21 22 13 11 13 -65 0z"/>
<path d="M2700 152 c0 -5 7 -9 15 -9 8 0 15 4 15 9 0 4 -7 8 -15 8 -8 0 -15
-4 -15 -8z"/>
<path d="M5498 108 c6 -6 41 -12 79 -15 87 -5 64 12 -26 20 -43 4 -60 2 -53
-5z"/>
<path d="M4950 100 c11 -7 3 -10 -30 -11 l-45 -2 40 -7 c38 -7 38 -7 8 -9 -33
-1 -51 -15 -34 -26 18 -11 87 18 98 42 10 21 9 23 -20 23 -24 0 -28 -3 -17
-10z"/>
<path d="M5043 85 c-17 -13 -16 -14 9 -15 30 0 46 15 24 23 -8 3 -22 -1 -33
-8z"/>
<path d="M4070 69 c-159 -13 -220 -21 -220 -30 0 -5 35 -10 78 -11 127 -4 153
-2 162 12 6 9 31 13 82 12 40 0 91 3 113 7 39 8 38 9 -20 10 -33 1 -69 3 -80
5 -11 1 -63 -1 -115 -5z"/>
<path d="M5270 70 c-84 -6 -117 -18 -84 -31 16 -6 15 -8 -8 -8 -16 -1 -28 -5
-28 -10 0 -5 -8 -12 -17 -14 -10 -2 52 -5 137 -5 99 -1 167 3 189 11 27 9 35
9 38 0 3 -9 27 -13 74 -13 63 0 69 2 69 21 0 42 -20 48 -161 51 -74 2 -168 1
-209 -2z m283 -47 c-7 -2 -19 -2 -25 0 -7 3 -2 5 12 5 14 0 19 -2 13 -5z"/>
<path d="M3715 38 c12 -31 17 -33 65 -36 39 -2 51 0 48 10 -3 7 -14 14 -25 16
-15 2 -19 8 -16 23 5 17 0 19 -40 19 l-46 0 14 -32z"/>
<path d="M4335 59 c-4 -5 17 -9 46 -9 61 0 60 -7 -2 -19 -40 -8 -37 -9 31 -8
54 2 74 6 73 14 -3 13 27 18 85 14 17 -1 32 3 32 8 0 13 -258 13 -265 0z"/>
<path d="M4636 62 c-3 -5 8 -6 25 -4 16 2 29 6 29 8 0 8 -49 4 -54 -4z"/>
<path d="M2871 51 c-11 -7 -11 -9 0 -13 12 -4 12 -7 0 -21 -12 -15 -11 -17 8
-17 16 0 21 6 21 24 0 29 -10 38 -29 27z"/>
<path d="M4725 49 c-22 -4 -64 -13 -94 -18 -103 -19 -71 -27 111 -29 134 -1
191 2 213 12 17 8 37 16 45 19 10 4 8 6 -7 6 -12 1 -34 -4 -49 -9 -21 -8 -32
-7 -53 6 -28 19 -104 25 -166 13z"/>
<path d="M2940 20 c0 -19 3 -21 12 -12 9 9 9 15 0 24 -9 9 -12 7 -12 -12z"/>
<path d="M4128 33 c7 -3 16 -2 19 1 4 3 -2 6 -13 5 -11 0 -14 -3 -6 -6z"/>
<path d="M3858 3 c12 -2 32 -2 45 0 12 2 2 4 -23 4 -25 0 -35 -2 -22 -4z"/>
</g>
</svg>
