<?xml version="1.0" encoding="UTF-8"?>
<svg version="1.1" viewBox="0 0 2048 440" width="1280" height="1280" xmlns="http://www.w3.org/2000/svg">
<path transform="translate(477,20)" d="m0 0 6 1 25 16 23 15 17 11 11-7 16-10 20-13 14-9 7 1 21 14 61 40 93 61 99 65 21 14 2 3v5l-4 4-7-1-25-16-15-10-61-40-61-40-128-84-12 7-26 17-11 7v2l16 10 37 24 25 16 26 17 85 55 25 16 18 12 2 2v6l-4 4-7-1-16-10-37-24-25-16-26-17-17-11-25-16-23-15-17-11-20-13-25-16-60-39-16-10-11 7-16 10-20 13-51 33-25 16-23 15-68 44-25 16-23 15-34 22-13 8-7-1-2-3v-6l7-6 16-10 20-13 17-11 25-16 21-14v-87l3-6 2-1h62l4 4v44l18-11 27-18 18-11 15-10 25-16 23-15zm-196 55v71l5-2 25-16 12-8 2-2v-43z" fill="#030303"/>
<path transform="translate(1137,38)" d="m0 0h32v54h63v-54h31l1 1v136l-1 1h-27l-4-1-1-55-62-1v57h-27l-5-1z" fill="#1DB567"/>
<path transform="translate(1620,38)" d="m0 0h32v54h62v-54h32v138h-27l-5-1v-56h-62v56l-1 1h-26l-5-1z" fill="#074AA8"/>
<path transform="translate(1294,38)" d="m0 0h104v26h-72v29h63l1 1v24h-64v32h75v25l-1 1h-101l-5-1z" fill="#1FB669"/>
<path transform="translate(1775,38)" d="m0 0h32l1 81 2 12 5 10 7 6 11 3h9l9-2 8-5 5-7 3-10 1-87 1-1h31v87l-3 15-4 9-7 11-11 9-13 6-16 3h-17l-15-3-12-5-9-7-8-9-6-12-3-12-1-10z" fill="#084BAA"/>
<path transform="translate(1531,36)" d="m0 0h25l17 4 15 8 12 11-2 4-13 12-3 3-4-1-11-8-9-4-5-1h-16l-13 4-11 8-7 11-3 9-1 14 3 14 6 11 10 9 9 4 10 2h10l12-3 9-5 8-7 4 2 10 9 7 6-2 5-9 8-10 6-14 5-11 2h-20l-15-3-12-5-11-7-10-9-6-8-7-14-3-10-1-7v-17l3-14 5-12 8-11 5-6 11-8 14-7z" fill="#084BAA"/>
<path transform="translate(1e3 38)" d="m0 0h120v26h-44v112h-27l-5-1v-111h-44z" fill="#1CB567"/>
<path transform="translate(308,190)" d="m0 0h31l1 4-7 2-1 2-1 28h29l-1-29-8-3 1-4h31v4l-8 2 1 64 7 3v3h-32l1-4 7-1 1-31-28 1v27l2 3 6 2v3h-32l1-4 6-2 1-1v-61l-1-2-7-2z" fill="#21B66B"/>
<path transform="translate(549,190)" d="m0 0h31l1 4-7 2-1 1-1 29h29l-1-28-1-2-7-2v-4h31l1 4-7 2-1 2v61l2 2 6 2v3h-32l1-4 6-2 1-1v-28l-28-1 1 31 7 1 1 4h-32v-4l7-2 1-3v-57l-2-4-6-2z" fill="#084BAA"/>
<path transform="translate(628,190)" d="m0 0h31l1 4-7 2-1 1v52l3 8 3 3 3 1h9l7-4 6-7 1-2v-50l-1-2-7-2v-4h32v4l-7 2-1 2v61l2 2 6 2v3h-25l1-11-6 7-10 5h-15l-8-4-6-7-2-5-1-6-1-48-8-4z" fill="#0E4FAC"/>
<path transform="translate(1035,206)" d="m0 0 11 1 12 14 8 10 6 8 1-32 2-1h11l1 5v52l-1 1h-8l-5-3-11-13-8-10-6-7-1 33-13-1v-56z" fill="#5E5D5D"/>
<path transform="translate(1806,206)" d="m0 0h17l10 4 8 7 4 8 1 3v14l-6 12-7 6-9 4-11 1-10-2-9-5-7-8-3-8v-14l4-9 7-8zm4 11-6 3-5 6-2 6 1 10 4 6 5 4 3 1h10l6-3 5-6 2-6-1-10-4-6-5-4-3-1z" fill="#5A5A5A"/>
<path transform="translate(1306,206)" d="m0 0h17l9 4 8 7 4 6 2 8v8l-3 10-9 10-8 4-10 2-10-1-8-3-10-9-4-9-1-11 3-11 9-10 8-4zm4 11-8 4-4 6-1 3v10l4 8 8 5h11l8-5 4-7v-12l-5-8-8-4z" fill="#5A5A5A"/>
<path transform="translate(1856,206)" d="m0 0 32 1 8 3 7 8 2 6-1 10-4 7-6 4 7 11 4 6v2h-11l-5-3-8-12-13-1v16h-8l-5-1v-56zm13 11-1 1v18l1 1h15l6-4 1-2v-8l-5-5-5-1z" fill="#595959"/>
<path transform="translate(1203,206)" d="m0 0 32 1 8 3 7 8 2 6-1 10-4 7-6 4 7 11 4 6v2h-11l-5-3-8-12-13-1 1 15-1 1-13-1v-56zm13 11-1 1v18l1 1h15l5-3 2-3v-8l-5-5-5-1z" fill="#595959"/>
<path transform="translate(1703,206)" d="m0 0 33 1 10 5 4 5 2 5v10l-4 8-6 5 2 5 9 12-1 2h-10l-5-2-9-13-12-1v15l-1 1h-7l-5-1zm13 11v20h15l5-3 2-2 1-6-2-5-4-3-5-1z" fill="#5A5A5A"/>
<path transform="translate(1355,206)" d="m0 0 33 1 10 5 4 5 2 5v11l-4 7-6 5 2 4 8 12 1 3h-11l-4-1-10-14-12-1v15l-1 1h-7l-5-1zm13 11v20h15l6-3 2-5-1-7-5-4-5-1z" fill="#595959"/>
<path transform="translate(388,190)" d="m0 0h53l2 5 1 11h-4l-5-8-7-3h-16l-1 30 18-1 4-4 2-3 3 1v19h-4l-3-6-3-1-17-1 1 31 1 1h15l7-3 7-12 4 1-4 19h-54l1-4 6-2 1-2v-61l-3-2-5-1z" fill="#1DB567"/>
<path transform="translate(1489,206)" d="m0 0h42l1 4v7h-30v12h26v11h-26v13h31v10l-1 1h-38l-6-1v-56z" fill="#646464"/>
<path transform="translate(1149,206)" d="m0 0h42l1 4v7h-30v12h26v11h-26v13h30l1 1v9l-1 1h-38l-6-1v-56z" fill="#646464"/>
<path transform="translate(1690,206)" d="m0 0 2 1v10h-30v12h26l1 10-1 1h-26v13h31v11h-39l-5-1v-56z" fill="#5B5B5B"/>
<path transform="translate(513,188)" d="m0 0 25 3 4 17 1 3-5 1-4-4-6-9-10-5h-9l-6 3-5 6-3 9v24l4 13 4 6 6 5 5 2h8l8-3 6-7 4-7 4 1-1 5-6 9-9 6-8 2h-10l-13-4-10-9-5-7-3-9-1-5v-13l3-11 6-10 8-7 10-4z" fill="#1252AC"/>
<path transform="translate(1538,206)" d="m0 0h13l7 8 6 9h2l8-12 5-5h12l-2 5-12 17-3 4 1 5 13 18 5 7v2h-12l-4-1-9-13-4-5-13 19h-15l2-4 12-17 6-9-13-18-6-9z" fill="#5D5C5C"/>
<path transform="translate(246,189)" d="m0 0h58l-1 8-3 9h-3l-2-9-1-1-14-1 1 64 2 2 7 2v3h-35l1-4 8-2 1-2v-63l-12 1-5 5-3 5-4-1 4-15z" fill="#1DB567"/>
<path transform="translate(366,408)" d="m0 0h232l1 5-1 1h-232l-1-5z"/>
<path transform="translate(1594,206)" d="m0 0h48l1 1v10h-18v46l-1 1-13-1v-46h-18v-10z" fill="#5D5B5B"/>
<path transform="translate(1093,206)" d="m0 0 49 1v10h-18v47h-8l-5-1-1-45-17-1z" fill="#555"/>
<path transform="translate(1762,206)" d="m0 0h12l1 1v56l-1 1-13-1v-56z" fill="#6D6D6D"/>
<path transform="translate(1009,206)" d="m0 0h12l1 4v53l-1 1-13-1v-56z" fill="#6D6D6D"/>
<path transform="translate(1262,206)" d="m0 0 12 1v57h-8l-5-1v-56z" fill="#565656"/>
<path transform="translate(1544,317)" d="m0 0h8l10 5 6 8 1 3v11l-4 8-7 6-5 2-4-1 5-3 3-5 1-4v-17l-3-8-4-3h-6l-5 5-2 6v17l3 8 3 3 3 2-7-1-6-4-5-6-2-5v-11l4-8 7-6z" fill="#0D0D0D"/>
<path transform="translate(1079,318)" d="m0 0h18l-3 5v31l2 4 2 2h-18v-2l2-1v-36z" fill="#0C0C0C"/>
<path transform="translate(1053,318)" d="m0 0h18l-3 3v37l3 1v1h-18l3-4v-34z" fill="#0B0B0B"/>
<path transform="translate(1322,318)" d="m0 0h18l-3 3v36l3 3h-18l3-5v-33z" fill="#0B0B0B"/>
<path transform="translate(1731,318)" d="m0 0h14l-2 2v37l3 3h-18l3-6z" fill="#181818"/>
<path transform="translate(1423,318)" d="m0 0h14l1 22v17l3 3h-18l3-5v-32l-1-3z" fill="#0C0C0C"/>
<path transform="translate(1643,318)" d="m0 0h14l1 20v17l4 5h-19l3-3v-36z" fill="#0B0B0B"/>
<path transform="translate(1235,318)" d="m0 0h14l1 20v20l3 1v1h-18l3-4v-34z" fill="#0C0C0C"/>
<path transform="translate(1811,318)" d="m0 0h13l10 11 9 11 4 4v15l-6-5-9-11-13-14-4-4-2-5z" fill="#060606"/>
<path transform="translate(1761,318)" d="m0 0h14l1 20v20l3 1v1h-18l3-4v-35z" fill="#050505"/>
<path transform="translate(1205,318)" d="m0 0h14l-3 5v32l4 5h-18l2-3z" fill="#0C0C0C"/>
<path transform="translate(1471,318)" d="m0 0h14l1 22v16l3 4h-18l1-2h2v-37z" fill="#050505"/>
<path transform="translate(1393,318)" d="m0 0h14l-3 4v34l3 4h-17v-2l2-1z" fill="#0B0B0B"/>
<path transform="translate(1880,318)" d="m0 0h11l1 39 3 3h-18l3-5z" fill="#0B0B0B"/>
<path transform="translate(1355,318)" d="m0 0h13l6 12 7 16-1 5-4 8-2-1-14-33-3-5z" fill="#090909"/>
<path transform="translate(1693,318)" d="m0 0h14l12 28-1 6-3 7h-2l-17-39z" fill="#0A0A0A"/>
<path transform="translate(1167,318)" d="m0 0h13l8 16 5 12-1 5-4 8-3-4-13-30-1-5z" fill="#090909"/>
<path transform="translate(1583,318)" d="m0 0h17l-2 1 5 13 7 15-1 5-3 7h-2l-16-36z" fill="#090909"/>
<path transform="translate(1491,318)" d="m0 0 8 1 6 5 1 6-3 6-5 3 5 3 6 14 4 4h-8l-5-3-4-6-3-11-2-1 3-4 1-7-2-8z" fill="#0E0E0E"/>
<path transform="translate(1129,317)" d="m0 0h7l8 3 7 7 3 8v7l-3 8-5 6-9 4-4-1 6-3 3-7 1-5v-10l-2-9-2-5-10-2z" fill="#101010"/>
<path transform="translate(420,302)" d="m0 0h16l5 3 2 2v9l-3 4h-2l4 7 1 3-5-1-4-6-9-1v8h-5zm5 3v13h10l4-3v-6l-3-3-4-1z" fill="#FF5454"/>
<path transform="translate(175,302)" d="m0 0 5 1 14 17v2h2v-20h4v28l-5-1-11-13-4-5-1 19h-4z" fill="#FF4242"/>
<path transform="translate(1125,318)" d="m0 0 4 1-3 1-2 5-2 9v9l2 9 3 5 5 2v1l-7-1-9-6-4-7-1-10 3-9 5-5z" fill="#0F0F0F"/>
<path transform="translate(1552,318)" d="m0 0 5 1 6 4 5 7 1 3v11l-4 8-7 6-5 2-4-1 5-3 3-5 1-4v-17l-3-8z" fill="#0A0A0A"/>
<path transform="translate(788,301)" d="m0 0 9 2 6 5 2 9-2 7-7 6-9 1-7-3-5-6-1-9 3-6 4-4zm-1 4-6 3-3 7 2 8 6 4 9-1 5-6v-8l-5-6z" fill="#FF4343"/>
<path transform="translate(384,301)" d="m0 0 9 2 5 5 2 4v8l-4 7-5 3-8 1-8-3-4-5-1-2v-10l4-6 5-3zm-1 4-6 3-3 4v8l5 6 9 1 6-4 2-4v-6l-4-6-5-2z" fill="#FF4242"/>
<path transform="translate(825,302)" d="m0 0h16l5 3 2 4v6l-4 5h-2l6 10h-5l-5-7-9-1v8h-4zm4 3v13h11l4-5-1-5-2-2-5-1z" fill="#FF4040"/>
<path transform="translate(302,302)" d="m0 0h16l5 3 2 5-1 7-3 3h-2l6 10h-5l-5-7-9-1v8h-4zm4 3v13h11l3-3v-7l-2-2-5-1z" fill="#FF3F3F"/>
<path transform="translate(706,302)" d="m0 0h16l6 4 1 2v7l-4 5h-2l6 9-4 1-5-6v-2h-10v8h-4zm5 3-1 1v12h11l4-4v-5l-3-3-4-1z" fill="#FF3B3B"/>
<path transform="translate(260,302)" d="m0 0h20v3l-15 1v7l14 1-1 4h-14l1 8 16 1v3h-21z" fill="#FF3C3C"/>
<path transform="translate(544,302)" d="m0 0h20v3l-15 1-1 8h14v4h-14l1 8 16 1v3h-21z" fill="#FF3D3D"/>
<path transform="translate(665,302)" d="m0 0h20v3h-16v9h14v4h-14v9h16v3h-20z" fill="#FF3A3A"/>
<path transform="translate(1434,235)" d="m0 0h22v11h-22l-1-1v-9z" fill="#767676"/>
<path transform="translate(583,302)" d="m0 0 5 1 6 8 2 1 2-4 4-6h5l-6 9-3 5 9 12v2l-5-1-7-9-4 4-4 6h-5l7-11 2-4-8-11z" fill="#FF4040"/>
<path transform="translate(623,302)" d="m0 0h23v3h-9v25h-5v-25h-9z" fill="#FF5959"/>
<path transform="translate(1443,318)" d="m0 0 8 1 5 4 1 2v7l-4 5-7 3-3-1 3-5v-11z" fill="#0D0D0D"/>
<path transform="translate(218,302)" d="m0 0h24v3l-9 1-1 24h-4l-1-24-9-1z" fill="#f33"/>
<path transform="translate(269,360)" d="m0 0h9v23h-9l1-2v-19z" fill="#252525"/>
<path transform="translate(685,360)" d="m0 0h7l9 10 4 5v8l-7-6-12-14z" fill="#0D0D0D"/>
<path transform="translate(656,360)" d="m0 0h8l1 23h-9l1-2v-19z" fill="#101010"/>
<path transform="translate(254,360)" d="m0 0h9l-1 11 1 12h-9l1-2v-19z" fill="#222"/>
<path transform="translate(407,360)" d="m0 0h8v23h-8z" fill="#0E0E0E"/>
<path transform="translate(639,360)" d="m0 0h7v23h-8z" fill="#242424"/>
<path transform="translate(447,360)" d="m0 0h7v23h-8z" fill="#242424"/>
<path transform="translate(590,360)" d="m0 0h7l1 23h-8z" fill="#0D0D0D"/>
<path transform="translate(492,360)" d="m0 0h7l1 23h-8z" fill="#0D0D0D"/>
<path transform="translate(464,360)" d="m0 0h7l1 1v19l1 3h-9l1-2v-19z" fill="#222"/>
<path transform="translate(358,360)" d="m0 0h7l1 23h-8z" fill="#0C0C0C"/>
<path transform="translate(340,360)" d="m0 0h7v23h-8z" fill="#171717"/>
<path transform="translate(148,302)" d="m0 0h5v28h-5z" fill="#FF7070"/>
<path transform="translate(345,302)" d="m0 0 5 1v27h-5z" fill="#FF5050"/>
<path transform="translate(618,360)" d="m0 0h7l7 15-2 7-2 1-9-20z" fill="#0F0F0F"/>
<path transform="translate(426,360)" d="m0 0h7l7 15-2 7-2 1-9-20z" fill="#0F0F0F"/>
<path transform="translate(320,360)" d="m0 0h6l5 10 2 5-1 6-2 2-6-12z" fill="#0E0E0E"/>
<path transform="translate(723,360)" d="m0 0h6l1 21 1 2h-9l1-2z" fill="#030303"/>
<path transform="translate(556,360)" d="m0 0h7l7 16-2 6h-2l-10-21z" fill="#0D0D0D"/>
<path transform="translate(503,360)" d="m0 0 5 1 3 5-3 5-1 1 3 3 4 8h-6l-4-7-1-5 1-8z" fill="#111"/>
<path transform="translate(750,302)" d="m0 0h4v28h-4z" fill="#FF3232"/>
<path transform="translate(301,360)" d="m0 0 5 1 4 5 1 8-3 6-4 3-3-1 3-5v-11l-1-5z" fill="#161616"/>
<path transform="translate(537,360)" d="m0 0 5 1 4 5 1 8-4 7-3 2-3-1 3-5v-11z" fill="#111"/>
<path transform="translate(529,360)" d="m0 0 3 1-2 3-1 10 2 7 1 2-5-2-4-5v-9z" fill="#111"/>
<path transform="translate(293,360)" d="m0 0 3 1-2 3-1 10 2 7 1 2-5-2-4-5v-9z" fill="#111"/>
<path transform="translate(476,360)" d="m0 0 5 1 2 2v5l-5 4-3-1 1-1z" fill="#151515"/>
<path transform="translate(503,360)" d="m0 0 5 1 3 5-3 5-3 1-1-4z" fill="#131313"/>
<path transform="translate(990,345)" d="m0 0h11l1 4h-12z" fill="#1A1A1A"/>
<path transform="translate(1956,345)" d="m0 0h11v4h-11z" fill="#151515"/>
<path transform="translate(487,317)" d="m0 0h11v4h-11z" fill="#FF5C5C"/>
<path transform="translate(1269,351)" d="m0 0 1 4-2 5h-10l1-2 7-3z" fill="#282828"/>
<path transform="translate(1795,352)" d="m0 0 1 3-2 5h-10l2-2 6-3z" fill="#2C2C2C"/>
<path transform="translate(1677,352)" d="m0 0 1 4-2 4h-10l2-2 8-4z" fill="#262626"/>
<path transform="translate(1894,318)" d="m0 0h11l1 9-4-5-8-3z" fill="#1F1F1F"/>
<path transform="translate(1781,318)" d="m0 0h11l1 2v6l-6-5-6-2z" fill="#262626"/>
<path transform="translate(1255,318)" d="m0 0h11l1 8-6-5-6-2z" fill="#1D1D1D"/>
<path transform="translate(1867,318)" d="m0 0h10l-3 2-5 3-3 2v-6z" fill="#232323"/>
<path transform="translate(1664,318)" d="m0 0h10l1 1v6l-5-4-6-2z" fill="#212121"/>
<path transform="translate(1619,318)" d="m0 0h8l-6 7-1-2z" fill="#202020"/>
<path transform="translate(1815,355)" d="m0 0 5 5h-8v-2h2z" fill="#3A3A3A"/>
<path transform="translate(1697,355)" d="m0 0 2 1v2l3 1v1h-8z" fill="#3A3A3A"/>
<path transform="translate(1359,355)" d="m0 0 5 5h-8v-2z" fill="#393939"/>
<path transform="translate(1171,355)" d="m0 0 5 5h-8z" fill="#2C2C2C"/>
<path transform="translate(1786,334)" d="m0 0 2 2v6l-2-1v-2l-3-1z" fill="#616161"/>
<path transform="translate(1669,333)" d="m0 0h1v9l-5-5z" fill="#353535"/>
<path transform="translate(1843,318)" d="m0 0h8l-3 4h-2z" fill="#151515"/>
<path transform="translate(766,375)" d="m0 0h7v2h-7z" fill="#303030"/>
<path transform="translate(1260,334)" d="m0 0h1l1 7h-2v-2l-3-1z" fill="#2A2A2A"/>
<path transform="translate(218,375)" d="m0 0h6l1 2h-7z" fill="#3A3A3A"/>
<path transform="translate(715,360)" d="m0 0h5l-5 4z" fill="#3D3D3D"/>
<path transform="translate(733,360)" d="m0 0 5 1-1 3z" fill="#323232"/>
<path transform="translate(669,360)" d="m0 0 5 1-1 3z" fill="#323232"/>
<path transform="translate(602,360)" d="m0 0h5l-1 4v-2z" fill="#323232"/>
<path transform="translate(376,379)" d="m0 0 1 2-1 2-4-1z" fill="#252525"/>
<path transform="translate(608,379)" d="m0 0 1 2-1 2-4-1z" fill="#383838"/>
<path transform="translate(370,360)" d="m0 0h5l-1 4-1-2z" fill="#414141"/>
<path transform="translate(674,380)" d="m0 0 1 3h-5z" fill="#151515"/>
<path transform="translate(575,360)" d="m0 0 4 1-3 2z" fill="#303030"/>
<path transform="translate(670,369)" d="m0 0 1 4-2-1z" fill="#464646"/>
<path transform="translate(603,369)" d="m0 0 1 4-2-1z" fill="#464646"/>
<path transform="translate(371,369)" d="m0 0 1 4-2-1z" fill="#383838"/>
<path transform="translate(686,381)" d="m0 0 2 2-3-1z" fill="#3F3F3F"/>
<path transform="translate(619,381)" d="m0 0 2 2-3-1z" fill="#3F3F3F"/>
<path transform="translate(427,381)" d="m0 0 2 2-3-1z" fill="#3F3F3F"/>
<path transform="translate(320,381)" d="m0 0 2 2-3-1z" fill="#2A2A2A"/>
<path transform="translate(703,360)" d="m0 0 3 1h-3z" fill="#3F3F3F"/>
<path transform="translate(1678,350)" d="m0 0" fill="#545454"/>
<path transform="translate(1865,325)" d="m0 0" fill="#545454"/>
<path transform="translate(1675,325)" d="m0 0" fill="#545454"/>
<path transform="translate(675,379)" d="m0 0" fill="#545454"/>
<path transform="translate(536,359)" d="m0 0" fill="#545454"/>
<path transform="translate(532,359)" d="m0 0" fill="#545454"/>
<path transform="translate(300,359)" d="m0 0" fill="#545454"/>
<path transform="translate(296,359)" d="m0 0" fill="#545454"/>
<path transform="translate(1796,350)" d="m0 0" fill="#545454"/>
<path transform="translate(1270,350)" d="m0 0" fill="#545454"/>
</svg>
